<?xml version="1.0" encoding="us-ascii" standalone="no"?><svg xmlns="http://www.w3.org/2000/svg" xmlns:xlink="http://www.w3.org/1999/xlink" contentStyleType="text/css" height="1097px" preserveAspectRatio="none" style="width:623px;height:1097px;background:#FFFFFF;" version="1.1" viewBox="0 0 623 1097" width="623px" zoomAndPan="magnify"><defs/><g><ellipse cx="312.25" cy="20" fill="#222222" rx="10" ry="10" style="stroke:#222222;stroke-width:1.0;"/><polygon fill="#F1F1F1" points="264.25,50,360.25,50,372.25,62,360.25,74,264.25,74,252.25,62,264.25,50" style="stroke:#181818;stroke-width:0.5;"/><text fill="#000000" font-family="sans-serif" font-size="11" lengthAdjust="spacing" textLength="96" x="264.25" y="66.1572">isGenesisProtocol</text><text fill="#000000" font-family="sans-serif" font-size="11" lengthAdjust="spacing" textLength="19" x="233.25" y="59.6797">YES</text><text fill="#000000" font-family="sans-serif" font-size="11" lengthAdjust="spacing" textLength="17" x="372.25" y="59.6797">NO</text><rect fill="none" height="136.7539" style="stroke:#000000;stroke-width:1.5;" width="292" x="11" y="84"/><path d="M74,84 L74,93.4883 L64,103.4883 L11,103.4883 " fill="none" style="stroke:#000000;stroke-width:1.5;"/><text fill="#000000" font-family="sans-serif" font-size="14" lengthAdjust="spacing" textLength="53" x="14" y="98.5352">Genesis</text><rect fill="#FFA500" height="34.1328" rx="12.5" ry="12.5" style="stroke:#181818;stroke-width:0.5;" width="272" x="21" y="120.4883"/><text fill="#000000" font-family="sans-serif" font-size="12" lengthAdjust="spacing" textLength="252" x="31" y="142.0898">Generate TssMessage out of Random Share</text><rect fill="#F1F1F1" height="34.1328" rx="12.5" ry="12.5" style="stroke:#181818;stroke-width:0.5;" width="150" x="82" y="174.6211"/><text fill="#000000" font-family="sans-serif" font-size="12" lengthAdjust="spacing" textLength="130" x="92" y="196.2227">Distribute TssMessage</text><rect fill="none" height="136.7539" style="stroke:#000000;stroke-width:1.5;" width="289" x="323" y="84"/><path d="M558,84 L558,93.4883 L548,103.4883 L323,103.4883 " fill="none" style="stroke:#000000;stroke-width:1.5;"/><text fill="#000000" font-family="sans-serif" font-size="14" lengthAdjust="spacing" textLength="225" x="326" y="98.5352">Rekeying (for each Private Share)</text><rect fill="#FFA500" height="34.1328" rx="12.5" ry="12.5" style="stroke:#181818;stroke-width:0.5;" width="269" x="333" y="120.4883"/><text fill="#000000" font-family="sans-serif" font-size="12" lengthAdjust="spacing" textLength="249" x="343" y="142.0898">Generate TSSMessages out of Private Share</text><rect fill="#F1F1F1" height="34.1328" rx="12.5" ry="12.5" style="stroke:#181818;stroke-width:0.5;" width="150" x="392.5" y="174.6211"/><text fill="#000000" font-family="sans-serif" font-size="12" lengthAdjust="spacing" textLength="130" x="402.5" y="196.2227">Distribute TssMessage</text><polygon fill="#F1F1F1" points="312.25,226.7539,324.25,238.7539,312.25,250.7539,300.25,238.7539,312.25,226.7539" style="stroke:#181818;stroke-width:0.5;"/><rect fill="#F1F1F1" height="34.1328" rx="12.5" ry="12.5" style="stroke:#181818;stroke-width:0.5;" width="138" x="243.25" y="314.7539"/><text fill="#000000" font-family="sans-serif" font-size="12" lengthAdjust="spacing" textLength="118" x="253.25" y="336.3555">Collect TssMessages</text><rect fill="#FFA500" height="34.1328" rx="12.5" ry="12.5" style="stroke:#181818;stroke-width:0.5;" width="147" x="238.75" y="383.8867"/><text fill="#000000" font-family="sans-serif" font-size="12" lengthAdjust="spacing" textLength="127" x="248.75" y="405.4883">Validate TssMessages</text><polygon fill="#F1F1F1" points="175.25,270.7539,449.25,270.7539,461.25,282.7539,449.25,294.7539,175.25,294.7539,163.25,282.7539,175.25,270.7539" style="stroke:#181818;stroke-width:0.5;"/><text fill="#000000" font-family="sans-serif" font-size="11" lengthAdjust="spacing" textLength="274" x="175.25" y="286.9111">time &lt; definedDuration &amp;&amp; #messages &lt; threshold</text><rect fill="#FFA500" height="34.1328" rx="12.5" ry="12.5" style="stroke:#181818;stroke-width:0.5;" width="158" x="233.25" y="460.0195"/><text fill="#000000" font-family="sans-serif" font-size="12" lengthAdjust="spacing" textLength="138" x="243.25" y="481.6211">Generate Private Shares</text><rect fill="#FFA500" height="34.1328" rx="12.5" ry="12.5" style="stroke:#181818;stroke-width:0.5;" width="153" x="235.75" y="514.1523"/><text fill="#000000" font-family="sans-serif" font-size="12" lengthAdjust="spacing" textLength="133" x="245.75" y="535.7539">Generate Public Shares</text><rect fill="none" height="136.7539" style="stroke:#000000;stroke-width:1.5;" width="195" x="214.75" y="602.7383"/><path d="M399.75,602.7383 L399.75,612.2266 L389.75,622.2266 L214.75,622.2266 " fill="none" style="stroke:#000000;stroke-width:1.5;"/><text fill="#000000" font-family="sans-serif" font-size="14" lengthAdjust="spacing" textLength="175" x="217.75" y="617.2734">for each ProprietaryShare</text><rect fill="#FFA500" height="34.1328" rx="12.5" ry="12.5" style="stroke:#181818;stroke-width:0.5;" width="97" x="263.75" y="639.2266"/><text fill="#000000" font-family="sans-serif" font-size="12" lengthAdjust="spacing" textLength="77" x="273.75" y="660.8281">Sign Message</text><rect fill="#F1F1F1" height="34.1328" rx="12.5" ry="12.5" style="stroke:#181818;stroke-width:0.5;" width="133" x="245.75" y="693.3594"/><text fill="#000000" font-family="sans-serif" font-size="12" lengthAdjust="spacing" textLength="113" x="255.75" y="714.9609">Distribute Signature</text><rect fill="#F1F1F1" height="34.1328" rx="12.5" ry="12.5" style="stroke:#181818;stroke-width:0.5;" width="121" x="251.75" y="803.4922"/><text fill="#000000" font-family="sans-serif" font-size="12" lengthAdjust="spacing" textLength="101" x="261.75" y="825.0938">Collect Signatures</text><rect fill="#FFA500" height="34.1328" rx="12.5" ry="12.5" style="stroke:#181818;stroke-width:0.5;" width="130" x="247.25" y="872.625"/><text fill="#000000" font-family="sans-serif" font-size="12" lengthAdjust="spacing" textLength="110" x="257.25" y="894.2266">Validate Signatures</text><polygon fill="#F1F1F1" points="245.25,759.4922,379.25,759.4922,391.25,771.4922,379.25,783.4922,245.25,783.4922,233.25,771.4922,245.25,759.4922" style="stroke:#181818;stroke-width:0.5;"/><text fill="#000000" font-family="sans-serif" font-size="11" lengthAdjust="spacing" textLength="131" x="248.25" y="775.6494">#signatures &lt; threshold</text><rect fill="#FFA500" height="34.1328" rx="12.5" ry="12.5" style="stroke:#181818;stroke-width:0.5;" width="142" x="241.25" y="948.7578"/><text fill="#000000" font-family="sans-serif" font-size="12" lengthAdjust="spacing" textLength="122" x="251.25" y="970.3594">Aggregate Signatures</text><rect fill="#F1F1F1" height="34.1328" rx="12.5" ry="12.5" style="stroke:#181818;stroke-width:0.5;" width="115" x="254.75" y="1002.8906"/><text fill="#000000" font-family="sans-serif" font-size="12" lengthAdjust="spacing" textLength="95" x="264.75" y="1024.4922">Persist Signature</text><polygon fill="#F1F1F1" points="312.25,568.2852,324.25,580.2852,312.25,592.2852,300.25,580.2852,312.25,568.2852" style="stroke:#181818;stroke-width:0.5;"/><line style="stroke:#181818;stroke-width:1.0;" x1="157" x2="157" y1="154.6211" y2="174.6211"/><polygon fill="#181818" points="153,164.6211,157,174.6211,161,164.6211,157,168.6211" style="stroke:#181818;stroke-width:1.0;"/><line style="stroke:#181818;stroke-width:1.0;" x1="467.5" x2="467.5" y1="154.6211" y2="174.6211"/><polygon fill="#181818" points="463.5,164.6211,467.5,174.6211,471.5,164.6211,467.5,168.6211" style="stroke:#181818;stroke-width:1.0;"/><line style="stroke:#181818;stroke-width:1.0;" x1="252.25" x2="157" y1="62" y2="62"/><line style="stroke:#181818;stroke-width:1.0;" x1="157" x2="157" y1="62" y2="120.4883"/><polygon fill="#181818" points="153,110.4883,157,120.4883,161,110.4883,157,114.4883" style="stroke:#181818;stroke-width:1.0;"/><line style="stroke:#181818;stroke-width:1.0;" x1="372.25" x2="467.5" y1="62" y2="62"/><line style="stroke:#181818;stroke-width:1.0;" x1="467.5" x2="467.5" y1="62" y2="120.4883"/><polygon fill="#181818" points="463.5,110.4883,467.5,120.4883,471.5,110.4883,467.5,114.4883" style="stroke:#181818;stroke-width:1.0;"/><line style="stroke:#181818;stroke-width:1.0;" x1="157" x2="157" y1="208.7539" y2="238.7539"/><line style="stroke:#181818;stroke-width:1.0;" x1="157" x2="300.25" y1="238.7539" y2="238.7539"/><polygon fill="#181818" points="290.25,234.7539,300.25,238.7539,290.25,242.7539,294.25,238.7539" style="stroke:#181818;stroke-width:1.0;"/><line style="stroke:#181818;stroke-width:1.0;" x1="467.5" x2="467.5" y1="208.7539" y2="238.7539"/><line style="stroke:#181818;stroke-width:1.0;" x1="467.5" x2="324.25" y1="238.7539" y2="238.7539"/><polygon fill="#181818" points="334.25,234.7539,324.25,238.7539,334.25,242.7539,330.25,238.7539" style="stroke:#181818;stroke-width:1.0;"/><line style="stroke:#181818;stroke-width:1.0;" x1="312.25" x2="312.25" y1="30" y2="50"/><polygon fill="#181818" points="308.25,40,312.25,50,316.25,40,312.25,44" style="stroke:#181818;stroke-width:1.0;"/><line style="stroke:#181818;stroke-width:1.0;" x1="312.25" x2="312.25" y1="348.8867" y2="383.8867"/><polygon fill="#181818" points="308.25,373.8867,312.25,383.8867,316.25,373.8867,312.25,377.8867" style="stroke:#181818;stroke-width:1.0;"/><line style="stroke:#181818;stroke-width:1.0;" x1="312.25" x2="312.25" y1="294.7539" y2="314.7539"/><polygon fill="#181818" points="308.25,304.7539,312.25,314.7539,316.25,304.7539,312.25,308.7539" style="stroke:#181818;stroke-width:1.0;"/><line style="stroke:#181818;stroke-width:1.0;" x1="312.25" x2="312.25" y1="418.0195" y2="428.0195"/><line style="stroke:#181818;stroke-width:1.0;" x1="312.25" x2="473.25" y1="428.0195" y2="428.0195"/><polygon fill="#181818" points="469.25,364.3867,473.25,354.3867,477.25,364.3867,473.25,360.3867" style="stroke:#181818;stroke-width:1.0;"/><line style="stroke:#181818;stroke-width:1.0;" x1="473.25" x2="473.25" y1="282.7539" y2="428.0195"/><line style="stroke:#181818;stroke-width:1.0;" x1="473.25" x2="461.25" y1="282.7539" y2="282.7539"/><polygon fill="#181818" points="471.25,278.7539,461.25,282.7539,471.25,286.7539,467.25,282.7539" style="stroke:#181818;stroke-width:1.0;"/><line style="stroke:#181818;stroke-width:1.0;" x1="163.25" x2="151.25" y1="282.7539" y2="282.7539"/><polygon fill="#181818" points="147.25,350.3867,151.25,360.3867,155.25,350.3867,151.25,354.3867" style="stroke:#181818;stroke-width:1.0;"/><line style="stroke:#181818;stroke-width:1.0;" x1="151.25" x2="151.25" y1="282.7539" y2="440.0195"/><line style="stroke:#181818;stroke-width:1.0;" x1="151.25" x2="312.25" y1="440.0195" y2="440.0195"/><line style="stroke:#181818;stroke-width:1.0;" x1="312.25" x2="312.25" y1="440.0195" y2="460.0195"/><polygon fill="#181818" points="308.25,450.0195,312.25,460.0195,316.25,450.0195,312.25,454.0195" style="stroke:#181818;stroke-width:1.0;"/><line style="stroke:#181818;stroke-width:1.0;" x1="312.25" x2="312.25" y1="250.7539" y2="270.7539"/><polygon fill="#181818" points="308.25,260.7539,312.25,270.7539,316.25,260.7539,312.25,264.7539" style="stroke:#181818;stroke-width:1.0;"/><line style="stroke:#181818;stroke-width:1.0;" x1="312.25" x2="312.25" y1="494.1523" y2="514.1523"/><polygon fill="#181818" points="308.25,504.1523,312.25,514.1523,316.25,504.1523,312.25,508.1523" style="stroke:#181818;stroke-width:1.0;"/><line style="stroke:#181818;stroke-width:1.0;" x1="312.25" x2="312.25" y1="673.3594" y2="693.3594"/><polygon fill="#181818" points="308.25,683.3594,312.25,693.3594,316.25,683.3594,312.25,687.3594" style="stroke:#181818;stroke-width:1.0;"/><line style="stroke:#181818;stroke-width:1.0;" x1="312.25" x2="312.25" y1="837.625" y2="872.625"/><polygon fill="#181818" points="308.25,862.625,312.25,872.625,316.25,862.625,312.25,866.625" style="stroke:#181818;stroke-width:1.0;"/><line style="stroke:#181818;stroke-width:1.0;" x1="312.25" x2="312.25" y1="783.4922" y2="803.4922"/><polygon fill="#181818" points="308.25,793.4922,312.25,803.4922,316.25,793.4922,312.25,797.4922" style="stroke:#181818;stroke-width:1.0;"/><line style="stroke:#181818;stroke-width:1.0;" x1="312.25" x2="312.25" y1="906.7578" y2="916.7578"/><line style="stroke:#181818;stroke-width:1.0;" x1="312.25" x2="403.25" y1="916.7578" y2="916.7578"/><polygon fill="#181818" points="399.25,853.125,403.25,843.125,407.25,853.125,403.25,849.125" style="stroke:#181818;stroke-width:1.0;"/><line style="stroke:#181818;stroke-width:1.0;" x1="403.25" x2="403.25" y1="771.4922" y2="916.7578"/><line style="stroke:#181818;stroke-width:1.0;" x1="403.25" x2="391.25" y1="771.4922" y2="771.4922"/><polygon fill="#181818" points="401.25,767.4922,391.25,771.4922,401.25,775.4922,397.25,771.4922" style="stroke:#181818;stroke-width:1.0;"/><line style="stroke:#181818;stroke-width:1.0;" x1="233.25" x2="221.25" y1="771.4922" y2="771.4922"/><polygon fill="#181818" points="217.25,839.125,221.25,849.125,225.25,839.125,221.25,843.125" style="stroke:#181818;stroke-width:1.0;"/><line style="stroke:#181818;stroke-width:1.0;" x1="221.25" x2="221.25" y1="771.4922" y2="928.7578"/><line style="stroke:#181818;stroke-width:1.0;" x1="221.25" x2="312.25" y1="928.7578" y2="928.7578"/><line style="stroke:#181818;stroke-width:1.0;" x1="312.25" x2="312.25" y1="928.7578" y2="948.7578"/><polygon fill="#181818" points="308.25,938.7578,312.25,948.7578,316.25,938.7578,312.25,942.7578" style="stroke:#181818;stroke-width:1.0;"/><line style="stroke:#181818;stroke-width:1.0;" x1="312.25" x2="312.25" y1="727.4922" y2="759.4922"/><polygon fill="#181818" points="308.25,749.4922,312.25,759.4922,316.25,749.4922,312.25,753.4922" style="stroke:#181818;stroke-width:1.0;"/><line style="stroke:#181818;stroke-width:1.0;" x1="312.25" x2="312.25" y1="982.8906" y2="1002.8906"/><polygon fill="#181818" points="308.25,992.8906,312.25,1002.8906,316.25,992.8906,312.25,996.8906" style="stroke:#181818;stroke-width:1.0;"/><line style="stroke:#181818;stroke-width:1.0;" x1="312.25" x2="312.25" y1="592.2852" y2="639.2266"/><polygon fill="#181818" points="308.25,629.2266,312.25,639.2266,316.25,629.2266,312.25,633.2266" style="stroke:#181818;stroke-width:1.0;"/><line style="stroke:#181818;stroke-width:1.0;" x1="312.25" x2="312.25" y1="1037.0234" y2="1085.0234"/><line style="stroke:#181818;stroke-width:1.0;" x1="312.25" x2="421.75" y1="1085.0234" y2="1085.0234"/><polygon fill="#181818" points="417.75,818.8809,421.75,808.8809,425.75,818.8809,421.75,814.8809" style="stroke:#181818;stroke-width:1.0;"/><line style="stroke:#181818;stroke-width:1.0;" x1="421.75" x2="421.75" y1="580.2852" y2="1085.0234"/><line style="stroke:#181818;stroke-width:1.0;" x1="421.75" x2="324.25" y1="580.2852" y2="580.2852"/><polygon fill="#181818" points="334.25,576.2852,324.25,580.2852,334.25,584.2852,330.25,580.2852" style="stroke:#181818;stroke-width:1.0;"/><line style="stroke:#181818;stroke-width:1.0;" x1="312.25" x2="312.25" y1="548.2852" y2="568.2852"/><polygon fill="#181818" points="308.25,558.2852,312.25,568.2852,316.25,558.2852,312.25,562.2852" style="stroke:#181818;stroke-width:1.0;"/><!--SRC=[VPB1QiCm44Jl-eg5G70E_G4x54fJSceRubBeKR7Nyb952hjoImZvzyecTkoczE2BPpGpUhO4pK5H1Gd96XqAoOPzy8Mt2mWrEdLt3nzFUQOEqKY1l8EB3qvgvbaxWsdxXdL0U1DvHX5j47mJm5UmrQxqUyXhpPYfT4KIc7RDn9kfiq8hs7Qzl8whjlY9Ht86aiepe2vgs31zjLLTukAl3Nb-oPL-nEJClojSIPNwhiaY987s24ieiIA7vQg9wUsc-Hnc-xvW6I4nIkrjkL3fexSMYp0AbMmO-AujbLD8KOsDNTtjFIQZHpbNGxEpL0mwum5rK01NV2De_i24yMCVE_ifsW3wn9oCWu52gum9jQeE3NVIEJxTtWHcqWk_C7G1FOhXj6IJpe76r33Wk3eVZ64qjzPqWnn_mp0Ug7u0]--></g></svg>