<?xml version="1.0" encoding="UTF-8" standalone="no"?>
<!-- Created with Inkscape (http://www.inkscape.org/) -->

<svg
   width="371"
   height="651"
   viewBox="0 0 98.160414 172.24375"
   version="1.1"
   id="svg1"
   inkscape:version="1.3.2 (091e20e, 2023-11-25)"
   sodipodi:docname="architecture-0.53.svg"
   xmlns:inkscape="http://www.inkscape.org/namespaces/inkscape"
   xmlns:sodipodi="http://sodipodi.sourceforge.net/DTD/sodipodi-0.dtd"
   xmlns="http://www.w3.org/2000/svg"
   xmlns:svg="http://www.w3.org/2000/svg">
  <sodipodi:namedview
     id="namedview1"
     pagecolor="#ffffff"
     bordercolor="#000000"
     borderopacity="0.25"
     inkscape:showpageshadow="2"
     inkscape:pageopacity="0.0"
     inkscape:pagecheckerboard="0"
     inkscape:deskcolor="#d1d1d1"
     inkscape:document-units="mm"
     inkscape:zoom="1"
     inkscape:cx="275.5"
     inkscape:cy="365"
     inkscape:window-width="1656"
     inkscape:window-height="1051"
     inkscape:window-x="77"
     inkscape:window-y="38"
     inkscape:window-maximized="1"
     inkscape:current-layer="layer1" />
  <defs
     id="defs1" />
  <g
     inkscape:label="Layer 1"
     inkscape:groupmode="layer"
     id="layer1"
     transform="translate(-22.224962,-10.054167)">
    <path
       d="m 75.275282,10.980209 a 0.79375002,0.79375002 0 0 1 0.79375,-0.793751 h 24.870838 a 0.79375002,0.79375002 0 0 1 0.79375,0.793751 v 11.64167 a 0.79375002,0.79375002 0 0 1 -0.79375,0.79375 H 76.069032 a 0.79375002,0.79375002 0 0 1 -0.79375,-0.79375 z"
       stroke="#282c33"
       stroke-width="0.264583"
       fill="#ffffff"
       id="path2" />
    <g
       id="use2"
       transform="matrix(0.13229167,0,0,0.13229167,82.877529,17.292546)">
      <path
         fill="#3a414a"
         d="M 11.419754,-11.666668 C 11.111112,-14.629631 3.8271608,-15.000001 3.7654324,-11.543211 4.62963,-6.9135808 13.51852,-10.679013 13.827162,-4.1975312 14.012347,0.617284 6.3580252,1.1728396 3.0246916,-0.8024692 1.9753088,-1.4197532 1.2962964,-2.4074076 0.9876544,-3.6419756 l 2.0370372,-0.4320988 c 0.308642,3.4567904 8.7037044,3.8888892 8.7037044,-0.061728 0,-4.8148152 -9.567902,-0.8641976 -10.0000008,-7.2839516 -0.308642,-5.061729 8.9506178,-5.185186 11.0493838,-2.098766 0.308642,0.432099 0.493827,0.987655 0.679012,1.54321"
         id="use505"
         style="stroke-width:0.0617284" />
      <path
         fill="#3a414a"
         d="m 20.987655,-11.97531 c 3.888889,0 5.308642,2.5925932 5.185186,6.5432108 h -8.333334 c 0,2.469136 0.864197,4.1358028 3.271605,4.1975312 1.604938,0.061728 2.654321,-0.7407408 3.024691,-1.7901236 l 1.728396,0.4938272 c -0.679013,1.7283952 -2.283951,2.777778 -4.753087,2.777778 -3.580247,0 -5.432099,-2.2839508 -5.370371,-6.17284 0.06173,-3.7654324 1.604938,-6.0493836 5.246914,-6.0493836 z m 3.209877,5.0000008 c 0.37037,-3.7037038 -4.691359,-4.7530868 -5.987655,-1.7283952 -0.185185,0.4320988 -0.37037,1.0493828 -0.37037,1.7283952 h 6.358025"
         id="use506"
         style="stroke-width:0.0617284" />
      <path
         fill="#3a414a"
         d="M 34.197532,-10.061729 C 29.382716,-11.049384 30.925926,-4.4444448 30.679013,0 h -1.975309 l -0.06173,-11.728396 h 1.851852 c 0.06173,0.740741 -0.06173,1.7901236 0.123456,2.4074076 0.370371,-1.6666666 1.419754,-3.0246916 3.580248,-2.5308646 v 1.790124"
         id="use507"
         style="stroke-width:0.0617284" />
      <path
         fill="#3a414a"
         d="m 41.17284,0 h -2.345679 l -4.25926,-11.728396 h 2.098766 l 3.333334,10.185186 3.45679,-10.185186 h 2.098766"
         id="path507"
         style="stroke-width:0.0617284" />
      <path
         fill="#3a414a"
         d="m 47.098766,-14.25926 v -1.851852 h 1.975308 v 1.851852 z m 0,14.25926 v -11.728396 h 1.975308 V 0 h -1.975308"
         id="use508"
         style="stroke-width:0.0617284" />
      <path
         fill="#3a414a"
         d="m 56.419753,-10.4321 c -2.469136,0 -2.962963,2.0370376 -2.962963,4.5061736 0,2.469136 0.555556,4.62963 2.962963,4.62963 1.481482,0 2.530865,-0.8641976 2.654322,-2.3456792 l 1.975308,0.1234568 c -0.37037,2.2839508 -1.91358,3.7654324 -4.567901,3.7654324 -3.641976,0 -4.691359,-2.5308644 -5.061729,-6.1111116 -0.617284,-5.740741 6.234568,-8.08642 9.074075,-3.9506176 0.246913,0.4320988 0.308642,0.8641976 0.432099,1.3580248 l -1.975309,0.1851852 C 58.703704,-9.567902 57.962963,-10.4321 56.419753,-10.4321"
         id="use509"
         style="stroke-width:0.0617284" />
      <path
         fill="#3a414a"
         d="m 67.777778,-11.97531 c 3.888889,0 5.308642,2.5925932 5.185186,6.5432108 H 64.62963 c 0,2.469136 0.864197,4.1358028 3.271605,4.1975312 1.604938,0.061728 2.654321,-0.7407408 3.024691,-1.7901236 l 1.728396,0.4938272 c -0.679013,1.7283952 -2.283951,2.777778 -4.753087,2.777778 -3.580247,0 -5.432099,-2.2839508 -5.370371,-6.17284 0.06173,-3.7654324 1.604938,-6.0493836 5.246914,-6.0493836 z m 3.209877,5.0000008 C 71.358025,-10.679013 66.296296,-11.728396 65,-8.7037044 c -0.185185,0.4320988 -0.37037,1.0493828 -0.37037,1.7283952 h 6.358025"
         id="use510"
         style="stroke-width:0.0617284" />
      <path
         fill="#3a414a"
         d="m 82.283951,-8.8271612 c -0.185185,-2.0987658 -5.308642,-2.3456788 -5.370371,0 0.925926,3.2716052 7.098766,0.7407408 7.34568,5.555556 C 84.506173,1.54321 75,1.2962964 74.567901,-2.777778 l 1.728395,-0.308642 c 0.246914,2.2222224 5.987655,2.777778 6.049383,0 -0.617284,-3.4567904 -6.975309,-0.925926 -7.283951,-5.555556 -0.246913,-3.518519 5.061729,-3.888889 7.530865,-2.592593 0.740741,0.432099 1.296296,1.17284 1.481482,2.1604942"
         id="path510"
         style="stroke-width:0.0617284" />
    </g>
    <path
       d="m 75.275282,50.667713 a 0.79375002,0.79375002 0 0 1 0.79375,-0.79375 h 24.870838 a 0.79375002,0.79375002 0 0 1 0.79375,0.79375 V 62.30938 a 0.79375002,0.79375002 0 0 1 -0.79375,0.79375 H 76.069032 a 0.79375002,0.79375002 0 0 1 -0.79375,-0.79375 z"
       stroke="#282c33"
       stroke-width="0.264583"
       fill="#ffffff"
       id="path3" />
    <g
       id="use3"
       transform="matrix(0.13229167,0,0,0.13229167,81.562778,56.980047)">
      <path
         fill="#3a414a"
         d="M 11.419754,-11.666668 C 11.111112,-14.629631 3.8271608,-15.000001 3.7654324,-11.543211 4.62963,-6.9135808 13.51852,-10.679013 13.827162,-4.1975312 14.012347,0.617284 6.3580252,1.1728396 3.0246916,-0.8024692 1.9753088,-1.4197532 1.2962964,-2.4074076 0.9876544,-3.6419756 l 2.0370372,-0.4320988 c 0.308642,3.4567904 8.7037044,3.8888892 8.7037044,-0.061728 0,-4.8148152 -9.567902,-0.8641976 -10.0000008,-7.2839516 -0.308642,-5.061729 8.9506178,-5.185186 11.0493838,-2.098766 0.308642,0.432099 0.493827,0.987655 0.679012,1.54321"
         id="use485"
         style="stroke-width:0.0617284" />
      <path
         fill="#3a414a"
         d="m 18.456791,-2.9012348 c -0.123457,1.4814816 1.111111,1.7901236 2.345679,1.3580248 v 1.4814816 c -2.037037,0.617284 -4.320988,0.308642 -4.320988,-2.4074076 v -7.839507 h -1.358025 v -1.419753 h 1.481482 l 0.555555,-2.654321 h 1.296297 v 2.654321 h 2.160494 v 1.419753 h -2.160494 v 7.4074082"
         id="use486"
         style="stroke-width:0.0617284" />
      <path
         fill="#3a414a"
         d="m 29.691358,-2.2222224 c -0.925926,1.2962964 -1.91358,2.5308644 -4.197531,2.469136 -2.222222,-0.0617284 -3.580247,-1.2962964 -3.580247,-3.5185188 -0.06173,-3.9506176 3.888889,-3.8888892 7.71605,-3.8888892 0.185185,-2.160494 -0.555556,-3.3333336 -2.530864,-3.3333336 -1.481482,0.06173 -2.530865,0.432099 -2.592593,1.9135804 l -2.037037,-0.1851852 c 0.308642,-2.2839512 2.037037,-3.2098772 4.691358,-3.2098772 2.777778,0 4.444445,1.234568 4.444445,3.950618 v 5.0617288 c -0.06173,1.234568 0.432099,1.9753088 1.728395,1.6666668 v 1.234568 c -1.91358,0.5555556 -3.765432,-0.1234568 -3.641976,-2.160494 z m -5.740741,-1.0493828 c 0,1.234568 0.740741,2.0370372 1.975309,2.0370372 2.530864,-0.1851852 3.888889,-1.7901236 3.703704,-4.5679016 -2.654321,0.1234568 -5.679013,-0.308642 -5.679013,2.5308644"
         id="use487"
         style="stroke-width:0.0617284" />
      <path
         fill="#3a414a"
         d="m 36.975309,-2.9012348 c -0.123457,1.4814816 1.111111,1.7901236 2.345679,1.3580248 v 1.4814816 C 37.283951,0.5555556 35,0.2469136 35,-2.469136 v -7.839507 h -1.358025 v -1.419753 h 1.481482 l 0.555555,-2.654321 h 1.296297 v 2.654321 h 2.160494 v 1.419753 h -2.160494 v 7.4074082"
         id="use488"
         style="stroke-width:0.0617284" />
      <path
         fill="#3a414a"
         d="m 45.679013,-11.97531 c 3.888889,0 5.308642,2.5925932 5.185186,6.5432108 h -8.333334 c 0,2.469136 0.864197,4.1358028 3.271605,4.1975312 1.604938,0.061728 2.654321,-0.7407408 3.024691,-1.7901236 l 1.728396,0.4938272 c -0.679013,1.7283952 -2.283951,2.777778 -4.753087,2.777778 -3.580247,0 -5.432099,-2.2839508 -5.370371,-6.17284 0.06173,-3.7654324 1.604938,-6.0493836 5.246914,-6.0493836 z m 3.209877,5.0000008 c 0.37037,-3.7037038 -4.691359,-4.7530868 -5.987655,-1.7283952 -0.185185,0.4320988 -0.37037,1.0493828 -0.37037,1.7283952 h 6.358025"
         id="use489"
         style="stroke-width:0.0617284" />
    </g>
    <g
       id="use4"
       transform="matrix(0.13229167,0,0,0.13229167,89.238962,56.980047)">
      <path
         fill="#3a414a"
         d="M 12.654322,0 10.925927,-4.4444448 H 3.9506176 L 2.2222224,0 H 0.0617284 L 6.2962968,-15.308643 H 8.641976 L 14.753088,0 Z M 10.308643,-6.1111116 7.407408,-13.703705 c -0.7407408,2.777778 -1.9135804,5.061729 -2.8395064,7.5925934 h 5.7407414"
         id="path529"
         style="stroke-width:0.0617284" />
      <path
         fill="#3a414a"
         d="m 16.666667,-15.308643 c 5.370371,0.06173 11.790124,-0.925926 11.790124,4.62963 0,4.814815 -4.753086,4.9382718 -9.753087,4.6913582 V 0 h -2.037037 z m 2.037037,7.7160498 c 3.518519,0 7.654322,0.6790124 7.654322,-3.0864198 0,-3.641976 -4.197531,-2.901235 -7.654322,-2.962963 v 6.0493828"
         id="path530"
         style="stroke-width:0.0617284" />
      <path
         fill="#3a414a"
         d="m 31.666667,0 v -15.308643 h 2.098766 V 0 h -2.098766"
         id="use530"
         style="stroke-width:0.0617284" />
      <path
         fill="#3a414a"
         d="m 44.135803,-8.8271612 c -0.185185,-2.0987658 -5.308642,-2.3456788 -5.370371,0 0.925926,3.2716052 7.098766,0.7407408 7.34568,5.555556 0.246913,4.8148152 -9.25926,4.5679016 -9.691359,0.4938272 l 1.728395,-0.308642 c 0.246914,2.2222224 5.987655,2.777778 6.049383,0 -0.617284,-3.4567904 -6.975309,-0.925926 -7.283951,-5.555556 -0.246913,-3.518519 5.061729,-3.888889 7.530865,-2.592593 0.740741,0.432099 1.296296,1.17284 1.481482,2.1604942"
         id="path531"
         style="stroke-width:0.0617284" />
    </g>
    <path
       d="m 75.275282,90.355214 a 0.79375002,0.79375002 0 0 1 0.79375,-0.79375 h 24.870838 a 0.79375002,0.79375002 0 0 1 0.79375,0.79375 v 11.641676 a 0.79375002,0.79375002 0 0 1 -0.79375,0.79376 H 76.069032 a 0.79375002,0.79375002 0 0 1 -0.79375,-0.79376 z"
       stroke="#282c33"
       stroke-width="0.264583"
       fill="#ffffff"
       id="path4" />
    <g
       id="use5"
       transform="matrix(0.13229167,0,0,0.13229167,77.034648,96.667548)">
      <path
         fill="#3a414a"
         d="M 8.4567908,0 H 6.3580252 L 0.1234568,-15.308643 h 2.160494 l 5.1234572,13.456791 5.123457,-13.456791 h 2.222223"
         id="use520"
         style="stroke-width:0.0617284" />
      <path
         fill="#3a414a"
         d="m 15.864198,-14.25926 v -1.851852 h 1.975308 v 1.851852 z m 0,14.25926 v -11.728396 h 1.975308 V 0 h -1.975308"
         id="use521"
         style="stroke-width:0.0617284" />
      <path
         fill="#3a414a"
         d="M 26.296297,-10.061729 C 21.481481,-11.049384 23.024691,-4.4444448 22.777778,0 h -1.975309 l -0.06173,-11.728396 h 1.851852 c 0.06173,0.740741 -0.06173,1.7901236 0.123456,2.4074076 0.370371,-1.6666666 1.419754,-3.0246916 3.580248,-2.5308646 v 1.790124"
         id="use522"
         style="stroke-width:0.0617284" />
      <path
         fill="#3a414a"
         d="m 30.246914,-2.9012348 c -0.123457,1.4814816 1.111111,1.7901236 2.345679,1.3580248 v 1.4814816 c -2.037037,0.617284 -4.320988,0.308642 -4.320988,-2.4074076 v -7.839507 H 26.91358 v -1.419753 h 1.481482 l 0.555555,-2.654321 h 1.296297 v 2.654321 h 2.160494 v 1.419753 h -2.160494 v 7.4074082"
         id="path522"
         style="stroke-width:0.0617284" />
      <path
         fill="#3a414a"
         d="M 37.962964,0.2469136 C 32.469136,0.4938272 34.62963,-6.9135808 34.197531,-11.728396 h 1.975309 v 7.407408 c 0,1.9135804 0.432099,3.08642 2.407408,3.0246916 4.444444,-0.1234568 2.777778,-6.2345684 3.08642,-10.4320996 h 1.91358 L 43.641976,0 h -1.851852 c -0.06173,-0.617284 0.06173,-1.54321 -0.123456,-2.0370372 -0.679013,1.3580248 -1.728396,2.2222224 -3.703704,2.2839508"
         id="use523"
         style="stroke-width:0.0617284" />
      <path
         fill="#3a414a"
         d="m 53.827161,-2.2222224 c -0.925926,1.2962964 -1.91358,2.5308644 -4.197531,2.469136 -2.222222,-0.0617284 -3.580247,-1.2962964 -3.580247,-3.5185188 -0.06173,-3.9506176 3.888889,-3.8888892 7.71605,-3.8888892 0.185185,-2.160494 -0.555556,-3.3333336 -2.530864,-3.3333336 -1.481482,0.06173 -2.530865,0.432099 -2.592593,1.9135804 l -2.037037,-0.1851852 c 0.308642,-2.2839512 2.037037,-3.2098772 4.691358,-3.2098772 2.777778,0 4.444445,1.234568 4.444445,3.950618 v 5.0617288 c -0.06173,1.234568 0.432099,1.9753088 1.728395,1.6666668 v 1.234568 c -1.91358,0.5555556 -3.765432,-0.1234568 -3.641976,-2.160494 z M 48.08642,-3.2716052 c 0,1.234568 0.740741,2.0370372 1.975309,2.0370372 2.530864,-0.1851852 3.888889,-1.7901236 3.703704,-4.5679016 -2.654321,0.1234568 -5.679013,-0.308642 -5.679013,2.5308644"
         id="path523"
         style="stroke-width:0.0617284" />
      <path
         fill="#3a414a"
         d="m 58.950618,0 v -16.111112 h 1.975308 V 0 h -1.975308"
         id="use524"
         style="stroke-width:0.0617284" />
      <path
         fill="#3a414a"
         d="m 77.160495,0 0.123457,-13.456791 C 75.864199,-8.7654328 73.950618,-4.5061732 72.34568,0 H 70.925927 L 65.925926,-13.456791 65.987655,0 h -1.790124 v -15.308643 h 2.71605 l 4.753086,13.0246922 c 1.296297,-4.62963 3.148149,-8.6419762 4.691359,-13.0246922 h 2.654321 V 0 h -1.851852"
         id="use525"
         style="stroke-width:0.0617284" />
      <path
         fill="#3a414a"
         d="m 89.506173,-2.2222224 c -0.925926,1.2962964 -1.91358,2.5308644 -4.197531,2.469136 -2.222222,-0.0617284 -3.580247,-1.2962964 -3.580247,-3.5185188 -0.06173,-3.9506176 3.888889,-3.8888892 7.71605,-3.8888892 0.185185,-2.160494 -0.555556,-3.3333336 -2.530864,-3.3333336 -1.481482,0.06173 -2.530865,0.432099 -2.592593,1.9135804 l -2.037037,-0.1851852 c 0.308642,-2.2839512 2.037037,-3.2098772 4.691358,-3.2098772 2.777778,0 4.444445,1.234568 4.444445,3.950618 v 5.0617288 c -0.06173,1.234568 0.432099,1.9753088 1.728395,1.6666668 v 1.234568 c -1.91358,0.5555556 -3.765432,-0.1234568 -3.641976,-2.160494 z m -5.740741,-1.0493828 c 0,1.234568 0.740741,2.0370372 1.975309,2.0370372 2.530864,-0.1851852 3.888889,-1.7901236 3.703704,-4.5679016 -2.654321,0.1234568 -5.679013,-0.308642 -5.679013,2.5308644"
         id="path525"
         style="stroke-width:0.0617284" />
      <path
         fill="#3a414a"
         d="m 100.24691,-11.97531 c 3.39507,0.06173 4.32099,2.5308648 4.32099,6.0493836 0,3.5185188 -0.98765,6.0493832 -4.32099,6.17284 -1.913576,0 -3.024688,-0.8024692 -3.7037,-2.0987656 L 96.60494,4.62963 H 94.62963 L 94.5679,-11.728396 h 1.913581 l 0.123456,1.851852 c 0.617284,-1.296296 1.728396,-2.098766 3.641973,-2.098766 z m -0.493823,10.740742 c 2.469133,0 2.777773,-2.0987656 2.777773,-4.62963 0,-2.5308644 -0.37037,-4.506173 -2.777773,-4.567902 -2.592593,0 -3.148149,1.9753092 -3.148149,4.6913588 0,2.6543212 0.617284,4.5061732 3.148149,4.5061732"
         id="use526"
         style="stroke-width:0.0617284" />
      <path
         fill="#3a414a"
         d="m 106.60494,-6.17284 v -2.2222224 l 10.80247,-4.5679016 v 1.666667 l -9.32099,4.0123458 9.32099,3.9506176 v 1.6666668"
         id="use527"
         style="stroke-width:0.0617284" />
      <path
         fill="#3a414a"
         d="m 130.4321,0 -6.11111,-7.407408 -1.97531,1.54321 V 0 h -2.03704 v -15.308643 h 2.03704 v 7.6543214 l 7.34568,-7.6543214 h 2.46913 L 125.67901,-8.641976 133.02469,0 h -2.59259"
         id="use528"
         style="stroke-width:0.0617284" />
      <path
         fill="#3a414a"
         d="m 137.46913,-2.3456792 c 0.0617,2.0987656 0,4.012346 -0.8642,5.1851856 h -1.35802 C 135.80246,2.0370372 136.29629,1.234568 136.29629,0 h -0.98765 v -2.3456792 h 2.16049"
         id="use529"
         style="stroke-width:0.0617284" />
    </g>
    <g
       id="use6"
       transform="matrix(0.13229167,0,0,0.13229167,96.298601,96.667548)">
      <path
         fill="#3a414a"
         d="M 8.4567908,0 H 6.3580252 L 0.1234568,-15.308643 h 2.160494 l 5.1234572,13.456791 5.123457,-13.456791 h 2.222223"
         id="use490"
         style="stroke-width:0.0617284" />
      <path
         fill="#3a414a"
         d="m 15.925926,-1.6666668 v -1.6666668 l 9.320989,-3.9506176 -9.320989,-4.0123458 v -1.666667 l 10.80247,4.5679016 V -6.17284"
         id="use491"
         style="stroke-width:0.0617284" />
    </g>
    <path
       d="m 75.275282,130.04275 a 0.79375002,0.79375002 0 0 1 0.79375,-0.79375 h 24.870838 a 0.79375002,0.79375002 0 0 1 0.79375,0.79375 v 11.64167 a 0.79375002,0.79375002 0 0 1 -0.79375,0.79375 H 76.069032 a 0.79375002,0.79375002 0 0 1 -0.79375,-0.79375 z"
       stroke="#282c33"
       stroke-width="0.264583"
       fill="#ffffff"
       id="path6" />
    <g
       id="use7"
       transform="matrix(0.13229167,0,0,0.13229167,77.741019,136.35509)">
      <path
         fill="#3a414a"
         d="m 14.814816,0 0.123457,-13.456791 C 13.51852,-8.7654328 11.604939,-4.5061732 10.000001,0 H 8.5802476 L 3.5802472,-13.456791 3.6419756,0 H 1.851852 v -15.308643 h 2.7160496 l 4.7530868,13.0246922 c 1.2962966,-4.62963 3.1481486,-8.6419762 4.6913586,-13.0246922 h 2.654321 V 0 h -1.851852"
         id="use494"
         style="stroke-width:0.0617284" />
      <path
         fill="#3a414a"
         d="m 24.62963,-11.97531 c 3.888889,0 5.308642,2.5925932 5.185186,6.5432108 h -8.333334 c 0,2.469136 0.864197,4.1358028 3.271605,4.1975312 1.604938,0.061728 2.654321,-0.7407408 3.024691,-1.7901236 l 1.728396,0.4938272 c -0.679013,1.7283952 -2.283951,2.777778 -4.753087,2.777778 -3.580247,0 -5.432099,-2.2839508 -5.370371,-6.17284 0.06173,-3.7654324 1.604938,-6.0493836 5.246914,-6.0493836 z m 3.209877,5.0000008 c 0.37037,-3.7037038 -4.691359,-4.7530868 -5.987655,-1.7283952 -0.185185,0.4320988 -0.37037,1.0493828 -0.37037,1.7283952 h 6.358025"
         id="use495"
         style="stroke-width:0.0617284" />
      <path
         fill="#3a414a"
         d="M 37.839507,-10.061729 C 33.024691,-11.049384 34.567901,-4.4444448 34.320988,0 h -1.975309 l -0.06173,-11.728396 h 1.851852 c 0.06173,0.740741 -0.06173,1.7901236 0.123456,2.4074076 0.370371,-1.6666666 1.419754,-3.0246916 3.580248,-2.5308646 v 1.790124"
         id="use496"
         style="stroke-width:0.0617284" />
      <path
         fill="#3a414a"
         d="m 46.975309,0 -3.950617,-5.3703708 -1.419754,1.1728396 V 0 H 39.62963 v -16.111112 h 1.975308 v 10.0617288 l 5.123458,-5.6790128 h 2.28395 L 44.25926,-6.6666672 49.320988,0 h -2.345679"
         id="use497"
         style="stroke-width:0.0617284" />
      <path
         fill="#3a414a"
         d="m 50.740741,0 v -16.111112 h 1.975308 V 0 h -1.975308"
         id="use498"
         style="stroke-width:0.0617284" />
      <path
         fill="#3a414a"
         d="m 60.308642,-11.97531 c 3.888889,0 5.308642,2.5925932 5.185186,6.5432108 h -8.333334 c 0,2.469136 0.864197,4.1358028 3.271605,4.1975312 1.604938,0.061728 2.654321,-0.7407408 3.024691,-1.7901236 l 1.728396,0.4938272 c -0.679013,1.7283952 -2.283951,2.777778 -4.753087,2.777778 -3.580247,0 -5.432099,-2.2839508 -5.370371,-6.17284 0.06173,-3.7654324 1.604938,-6.0493836 5.246914,-6.0493836 z m 3.209877,5.0000008 c 0.37037,-3.7037038 -4.691359,-4.7530868 -5.987655,-1.7283952 -0.185185,0.4320988 -0.37037,1.0493828 -0.37037,1.7283952 h 6.358025"
         id="use499"
         style="stroke-width:0.0617284" />
      <path
         fill="#3a414a"
         d="m 68.333333,-15.308643 c 7.283951,-0.432099 13.333334,0.493827 13.148149,7.5308646 C 81.296297,-2.9629632 78.827161,0 74.012346,0 h -5.679013 z m 2.037037,13.6419762 c 5.493828,0.4938272 9.012347,-0.9876544 9.012347,-6.1111116 0,-5.1234576 -3.703704,-6.2345686 -9.012347,-5.8641976 v 11.9753092"
         id="use500"
         style="stroke-width:0.0617284" />
      <path
         fill="#3a414a"
         d="m 89.567902,-11.97531 c 3.271605,0 4.25926,2.407408 4.320988,6.0493836 0,4.0740744 -1.419753,6.17284 -4.320988,6.17284 C 87.654322,0.1851852 86.54321,-0.4320988 85.925926,-1.851852 L 85.80247,0 h -1.913581 l 0.06173,-16.111112 h 1.975308 v 6.234568 c 0.617284,-1.419753 1.728396,-2.098766 3.641975,-2.098766 z m -0.493827,10.740742 c 2.469136,0 2.777778,-2.0987656 2.777778,-4.62963 0,-2.469136 -0.308642,-4.62963 -2.777778,-4.567902 -2.592593,0 -3.148149,1.9753092 -3.148149,4.6913588 0,2.6543212 0.617284,4.5061732 3.148149,4.5061732"
         id="use501"
         style="stroke-width:0.0617284" />
      <path
         fill="#3a414a"
         d="M 95.925926,-6.17284 V -8.3950624 L 106.7284,-12.962964 v 1.666667 l -9.320992,4.0123458 9.320992,3.9506176 v 1.6666668"
         id="use502"
         style="stroke-width:0.0617284" />
      <path
         fill="#3a414a"
         d="m 119.75309,0 -6.11111,-7.407408 -1.97531,1.54321 V 0 h -2.03704 v -15.308643 h 2.03704 v 7.6543214 l 7.34568,-7.6543214 h 2.46913 L 115,-8.641976 122.34568,0 h -2.59259"
         id="use503"
         style="stroke-width:0.0617284" />
      <path
         fill="#3a414a"
         d="m 126.79012,-2.3456792 c 0.0617,2.0987656 0,4.012346 -0.8642,5.1851856 H 124.5679 C 125.12345,2.0370372 125.61728,1.234568 125.61728,0 h -0.98765 v -2.3456792 h 2.16049"
         id="use504"
         style="stroke-width:0.0617284" />
    </g>
    <g
       id="use8"
       transform="matrix(0.13229167,0,0,0.13229167,95.592228,136.35509)">
      <path
         fill="#3a414a"
         d="M 8.4567908,0 H 6.3580252 L 0.1234568,-15.308643 h 2.160494 l 5.1234572,13.456791 5.123457,-13.456791 h 2.222223"
         id="use492"
         style="stroke-width:0.0617284" />
      <path
         fill="#3a414a"
         d="m 15.925926,-1.6666668 v -1.6666668 l 9.320989,-3.9506176 -9.320989,-4.0123458 v -1.666667 l 10.80247,4.5679016 V -6.17284"
         id="use493"
         style="stroke-width:0.0617284" />
    </g>
    <path
       d="m 99.087786,180.84276 c 0,0.73025 -4.738691,1.32291 -10.583337,1.32291 -5.847292,0 -10.583333,-0.59266 -10.583333,-1.32291 v -10.58334 c 0,-0.73025 4.736041,-1.32291 10.583333,-1.32291 5.844646,0 10.583337,0.59266 10.583337,1.32291 z"
       stroke="#282c33"
       stroke-width="0.264583"
       fill="#ffffff"
       id="path8" />
    <path
       d="m 99.087786,170.25942 c 0,0.73025 -4.738691,1.32292 -10.583337,1.32292 -5.847292,0 -10.583333,-0.59267 -10.583333,-1.32292"
       stroke="#282c33"
       stroke-width="0.264583"
       fill="none"
       id="path9" />
    <g
       id="use9"
       transform="matrix(0.13229167,0,0,0.13229167,80.427683,177.48953)">
      <path
         fill="#3a414a"
         d="m 1.851852,-15.308643 c 7.2839512,-0.432099 13.333334,0.493827 13.148149,7.5308646 C 14.814816,-2.9629632 12.34568,0 7.5308648,0 H 1.851852 Z m 2.0370372,13.6419762 c 5.4938276,0.4938272 9.0123468,-0.9876544 9.0123468,-6.1111116 0,-5.1234576 -3.7037044,-6.2345686 -9.0123468,-5.8641976 v 11.9753092"
         id="use474"
         style="stroke-width:0.0617284" />
      <path
         fill="#3a414a"
         d="m 17.469136,-14.25926 v -1.851852 h 1.975308 v 1.851852 z m 0,14.25926 v -11.728396 h 1.975308 V 0 h -1.975308"
         id="use475"
         style="stroke-width:0.0617284" />
      <path
         fill="#3a414a"
         d="m 29.197532,-8.8271612 c -0.185185,-2.0987658 -5.308642,-2.3456788 -5.370371,0 0.925926,3.2716052 7.098766,0.7407408 7.34568,5.555556 0.246913,4.8148152 -9.25926,4.5679016 -9.691359,0.4938272 l 1.728395,-0.308642 c 0.246914,2.2222224 5.987655,2.777778 6.049383,0 -0.617284,-3.4567904 -6.975309,-0.925926 -7.283951,-5.555556 -0.246913,-3.518519 5.061729,-3.888889 7.530865,-2.592593 0.740741,0.432099 1.296296,1.17284 1.481482,2.1604942"
         id="use476"
         style="stroke-width:0.0617284" />
      <path
         fill="#3a414a"
         d="m 40.80247,0 -3.950617,-5.3703708 -1.419754,1.1728396 V 0 h -1.975308 v -16.111112 h 1.975308 v 10.0617288 l 5.123458,-5.6790128 h 2.28395 L 38.086421,-6.6666672 43.148149,0 H 40.80247"
         id="use477"
         style="stroke-width:0.0617284" />
      <path
         fill="#3a414a"
         d="m 44.197531,-6.17284 v -2.2222224 l 10.80247,-4.5679016 v 1.666667 l -9.320988,4.0123458 9.320988,3.9506176 v 1.6666668"
         id="use478"
         style="stroke-width:0.0617284" />
      <path
         fill="#3a414a"
         d="m 63.148149,-11.97531 c 3.271605,0 4.25926,2.407408 4.320988,6.0493836 0,4.0740744 -1.419753,6.17284 -4.320988,6.17284 -1.91358,-0.0617284 -3.024692,-0.6790124 -3.641976,-2.0987656 L 59.382717,0 h -1.913581 l 0.06173,-16.111112 h 1.975308 v 6.234568 c 0.617284,-1.419753 1.728396,-2.098766 3.641975,-2.098766 z m -0.493827,10.740742 c 2.469136,0 2.777778,-2.0987656 2.777778,-4.62963 0,-2.469136 -0.308642,-4.62963 -2.777778,-4.567902 -2.592593,0 -3.148149,1.9753092 -3.148149,4.6913588 0,2.6543212 0.617284,4.5061732 3.148149,4.5061732"
         id="use479"
         style="stroke-width:0.0617284" />
      <path
         fill="#3a414a"
         d="M 79.444446,-11.728396 74.135803,1.9135804 c -0.864197,1.7283952 -2.283951,3.1481484 -5,2.5925928 V 3.0246916 c 2.407407,0.3703704 3.271605,-1.234568 3.950617,-3.08642 L 68.45679,-11.728396 h 2.098766 l 3.518519,9.6296304 3.333333,-9.6296304 h 2.037038"
         id="use480"
         style="stroke-width:0.0617284" />
      <path
         fill="#3a414a"
         d="m 83.148149,-2.9012348 c -0.123457,1.4814816 1.111111,1.7901236 2.345679,1.3580248 v 1.4814816 C 83.456791,0.5555556 81.17284,0.2469136 81.17284,-2.469136 v -7.839507 h -1.358025 v -1.419753 h 1.481482 l 0.555555,-2.654321 h 1.296297 v 2.654321 h 2.160494 v 1.419753 h -2.160494 v 7.4074082"
         id="use481"
         style="stroke-width:0.0617284" />
      <path
         fill="#3a414a"
         d="m 91.851852,-11.97531 c 3.888889,0 5.308642,2.5925932 5.185186,6.5432108 h -8.333334 c 0,2.469136 0.864197,4.1358028 3.271605,4.1975312 C 93.580247,-1.1728396 94.62963,-1.9753088 95,-3.0246916 l 1.728396,0.4938272 c -0.679013,1.7283952 -2.283951,2.777778 -4.753087,2.777778 -3.580247,0 -5.432099,-2.2839508 -5.370371,-6.17284 0.06173,-3.7654324 1.604938,-6.0493836 5.246914,-6.0493836 z m 3.209877,5.0000008 c 0.37037,-3.7037038 -4.691359,-4.7530868 -5.987655,-1.7283952 -0.185185,0.4320988 -0.37037,1.0493828 -0.37037,1.7283952 h 6.358025"
         id="use482"
         style="stroke-width:0.0617284" />
      <path
         fill="#3a414a"
         d="m 106.35802,-8.8271612 c -0.18518,-2.0987658 -5.30864,-2.3456788 -5.37037,0 0.92593,3.2716052 7.09877,0.7407408 7.34568,5.555556 0.24692,4.8148152 -9.259256,4.5679016 -9.691355,0.4938272 l 1.728395,-0.308642 c 0.24691,2.2222224 5.98765,2.777778 6.04938,0 -0.61728,-3.4567904 -6.975306,-0.925926 -7.283948,-5.555556 -0.246913,-3.518519 5.061728,-3.888889 7.530868,-2.592593 0.74074,0.432099 1.29629,1.17284 1.48148,2.1604942"
         id="use483"
         style="stroke-width:0.0617284" />
      <path
         fill="#3a414a"
         d="m 110.24691,-1.6666668 v -1.6666668 l 9.32099,-3.9506176 -9.32099,-4.0123458 v -1.666667 l 10.80247,4.5679016 V -6.17284"
         id="use484"
         style="stroke-width:0.0617284" />
    </g>
    <path
       d="m 80.742897,142.67661 v 24.38135"
       stroke="#3a414a"
       fill="none"
       id="path10"
       style="stroke-width:0.132292" />
    <path
       d="m 80.806397,142.67661 h -0.127 v -0.0662 h 0.127 z"
       stroke="#3a414a"
       stroke-width="0.00661458"
       fill="#3a414a"
       id="path11" />
    <path
       d="m 80.742897,169.01191 -0.612511,-1.88648 h 1.225021 z"
       stroke="#3a414a"
       fill="#3a414a"
       id="path12"
       style="stroke-width:0.132292" />
    <path
       d="m 56.754448,149.8865 a 0.79375002,0.79375002 0 0 1 0.79375,-0.79375 h 24.870834 a 0.79375002,0.79375002 0 0 1 0.79375,0.79375 v 11.64167 a 0.79375002,0.79375002 0 0 1 -0.79375,0.79375 H 57.548198 a 0.79375002,0.79375002 0 0 1 -0.79375,-0.79375 z"
       stroke="#000000"
       stroke-opacity="0"
       stroke-width="0.264583"
       fill="#ffffff"
       fill-opacity="0"
       id="path13" />
    <g
       id="use13"
       transform="matrix(0.13229167,0,0,0.13229167,67.206682,152.85021)">
      <path
         fill="#3a414a"
         d="M 11.97531,0 5.864198,-7.407408 3.8888892,-5.864198 V 0 H 1.851852 v -15.308643 h 2.0370372 v 7.6543214 l 7.3456798,-7.6543214 h 2.469136 L 7.2222228,-8.641976 14.567902,0 H 11.97531"
         id="use511"
         style="stroke-width:0.0617284" />
      <path
         fill="#3a414a"
         d="m 19.012346,-2.3456792 c 0.06173,2.0987656 0,4.012346 -0.864197,5.1851856 H 16.790124 C 17.345679,2.0370372 17.839507,1.234568 17.839507,0 h -0.987655 v -2.3456792 h 2.160494"
         id="use512"
         style="stroke-width:0.0617284" />
    </g>
    <path
       fill="#3a414a"
       d="M 71.918553,152.85021 H 71.640905 L 70.816123,150.825 h 0.285815 l 0.677791,1.78022 0.677791,-1.78022 h 0.293981"
       id="use14"
       style="stroke-width:0.00816615" />
    <g
       id="use15"
       transform="matrix(0.13229167,0,0,0.13229167,64.609846,156.37798)">
      <path
         fill="#3a414a"
         d="m 8.333334,-8.8271612 c -0.1851852,-2.0987658 -5.3086424,-2.3456788 -5.3703708,0 0.925926,3.2716052 7.0987658,0.7407408 7.3456798,5.555556 C 10.555556,1.54321 1.0493828,1.2962964 0.617284,-2.777778 L 2.3456792,-3.08642 c 0.2469136,2.2222224 5.9876548,2.777778 6.0493832,0 -0.617284,-3.4567904 -6.9753092,-0.925926 -7.2839512,-5.555556 -0.2469136,-3.518519 5.0617288,-3.888889 7.5308648,-2.592593 0.7407408,0.432099 1.2962964,1.17284 1.481482,2.1604942"
         id="path512"
         style="stroke-width:0.0617284" />
      <path
         fill="#3a414a"
         d="m 17.283951,-11.97531 c 3.888889,0 5.308642,2.5925932 5.185186,6.5432108 h -8.333334 c 0,2.469136 0.864197,4.1358028 3.271605,4.1975312 1.604938,0.061728 2.654321,-0.7407408 3.024691,-1.7901236 l 1.728396,0.4938272 c -0.679013,1.7283952 -2.283951,2.777778 -4.753087,2.777778 -3.580247,0 -5.432099,-2.2839508 -5.370371,-6.17284 0.06173,-3.7654324 1.604938,-6.0493836 5.246914,-6.0493836 z m 3.209877,5.0000008 c 0.37037,-3.7037038 -4.691359,-4.7530868 -5.987655,-1.7283952 -0.185185,0.4320988 -0.37037,1.0493828 -0.37037,1.7283952 h 6.358025"
         id="use513"
         style="stroke-width:0.0617284" />
      <path
         fill="#3a414a"
         d="M 30.493828,-10.061729 C 25.679012,-11.049384 27.222222,-4.4444448 26.975309,0 H 25 l -0.06173,-11.728396 h 1.851852 c 0.06173,0.740741 -0.06173,1.7901236 0.123456,2.4074076 0.370371,-1.6666666 1.419754,-3.0246916 3.580248,-2.5308646 v 1.790124"
         id="use514"
         style="stroke-width:0.0617284" />
      <path
         fill="#3a414a"
         d="m 32.283951,-14.25926 v -1.851852 h 1.975308 v 1.851852 z m 0,14.25926 v -11.728396 h 1.975308 V 0 h -1.975308"
         id="use515"
         style="stroke-width:0.0617284" />
      <path
         fill="#3a414a"
         d="m 44.382716,-2.2222224 c -0.925926,1.2962964 -1.91358,2.5308644 -4.197531,2.469136 -2.222222,-0.0617284 -3.580247,-1.2962964 -3.580247,-3.5185188 -0.06173,-3.9506176 3.888889,-3.8888892 7.71605,-3.8888892 0.185185,-2.160494 -0.555556,-3.3333336 -2.530864,-3.3333336 -1.481482,0.06173 -2.530865,0.432099 -2.592593,1.9135804 l -2.037037,-0.1851852 c 0.308642,-2.2839512 2.037037,-3.2098772 4.691358,-3.2098772 2.777778,0 4.444445,1.234568 4.444445,3.950618 v 5.0617288 c -0.06173,1.234568 0.432099,1.9753088 1.728395,1.6666668 v 1.234568 c -1.91358,0.5555556 -3.765432,-0.1234568 -3.641976,-2.160494 z m -5.740741,-1.0493828 c 0,1.234568 0.740741,2.0370372 1.975309,2.0370372 2.530864,-0.1851852 3.888889,-1.7901236 3.703704,-4.5679016 -2.654321,0.1234568 -5.679013,-0.308642 -5.679013,2.5308644"
         id="path515"
         style="stroke-width:0.0617284" />
      <path
         fill="#3a414a"
         d="m 49.506173,0 v -16.111112 h 1.975308 V 0 h -1.975308"
         id="use516"
         style="stroke-width:0.0617284" />
      <path
         fill="#3a414a"
         d="m 54.382717,-14.25926 v -1.851852 h 1.975308 v 1.851852 z m 0,14.25926 v -11.728396 h 1.975308 V 0 h -1.975308"
         id="use517"
         style="stroke-width:0.0617284" />
      <path
         fill="#3a414a"
         d="m 58.333334,0 v -1.4814816 l 7.160494,-8.7654324 h -6.728396 v -1.481482 h 8.88889 v 1.481482 l -7.160494,8.7654324 h 7.592593 V 0 h -9.753087"
         id="use518"
         style="stroke-width:0.0617284" />
      <path
         fill="#3a414a"
         d="m 75.061729,-11.97531 c 3.888889,0 5.308642,2.5925932 5.185186,6.5432108 h -8.333334 c 0,2.469136 0.864197,4.1358028 3.271605,4.1975312 1.604938,0.061728 2.654321,-0.7407408 3.024691,-1.7901236 l 1.728396,0.4938272 c -0.679013,1.7283952 -2.283951,2.777778 -4.753087,2.777778 -3.580247,0 -5.432099,-2.2839508 -5.370371,-6.17284 0.06173,-3.7654324 1.604938,-6.0493836 5.246914,-6.0493836 z m 3.209877,5.0000008 c 0.37037,-3.7037038 -4.691359,-4.7530868 -5.987655,-1.7283952 -0.185185,0.4320988 -0.37037,1.0493828 -0.37037,1.7283952 h 6.358025"
         id="use519"
         style="stroke-width:0.0617284" />
    </g>
    <g
       id="use16"
       transform="matrix(0.13229167,0,0,0.13229167,66.471729,159.90576)">
      <path
         fill="#3a414a"
         d="m 7.098766,-11.97531 c 3.271605,0 4.25926,2.407408 4.320988,6.0493836 0,4.0740744 -1.419753,6.17284 -4.320988,6.17284 C 5.1851856,0.1851852 4.0740744,-0.4320988 3.4567904,-1.851852 L 3.3333336,0 H 1.4197532 l 0.061728,-16.111112 H 3.45679 v 6.234568 c 0.617284,-1.419753 1.7283952,-2.098766 3.641976,-2.098766 z M 6.6049388,-1.234568 c 2.469136,0 2.777778,-2.0987656 2.777778,-4.62963 0,-2.469136 -0.308642,-4.62963 -2.777778,-4.567902 -2.5925928,0 -3.1481484,1.9753092 -3.1481484,4.6913588 0,2.6543212 0.617284,4.5061732 3.1481484,4.5061732"
         id="use469"
         style="stroke-width:0.0617284" />
      <path
         fill="#3a414a"
         d="M 23.395063,-11.728396 18.08642,1.9135804 c -0.864197,1.7283952 -2.283951,3.1481484 -5,2.5925928 V 3.0246916 c 2.407407,0.3703704 3.271605,-1.234568 3.950617,-3.08642 l -4.62963,-11.6666676 h 2.098766 l 3.518519,9.6296304 3.333333,-9.6296304 h 2.037038"
         id="use470"
         style="stroke-width:0.0617284" />
      <path
         fill="#3a414a"
         d="m 27.098766,-2.9012348 c -0.123457,1.4814816 1.111111,1.7901236 2.345679,1.3580248 v 1.4814816 c -2.037037,0.617284 -4.320988,0.308642 -4.320988,-2.4074076 v -7.839507 h -1.358025 v -1.419753 h 1.481482 l 0.555555,-2.654321 h 1.296297 v 2.654321 h 2.160494 v 1.419753 h -2.160494 v 7.4074082"
         id="use471"
         style="stroke-width:0.0617284" />
      <path
         fill="#3a414a"
         d="m 35.80247,-11.97531 c 3.888889,0 5.308642,2.5925932 5.185186,6.5432108 h -8.333334 c 0,2.469136 0.864197,4.1358028 3.271605,4.1975312 1.604938,0.061728 2.654321,-0.7407408 3.024691,-1.7901236 l 1.728396,0.4938272 c -0.679013,1.7283952 -2.283951,2.777778 -4.753087,2.777778 -3.580247,0 -5.432099,-2.2839508 -5.370371,-6.17284 0.06173,-3.7654324 1.604938,-6.0493836 5.246914,-6.0493836 z m 3.209877,5.0000008 c 0.37037,-3.7037038 -4.691359,-4.7530868 -5.987655,-1.7283952 -0.185185,0.4320988 -0.37037,1.0493828 -0.37037,1.7283952 h 6.358025"
         id="use472"
         style="stroke-width:0.0617284" />
      <path
         fill="#3a414a"
         d="m 50.308643,-8.8271612 c -0.185185,-2.0987658 -5.308642,-2.3456788 -5.370371,0 0.925926,3.2716052 7.098766,0.7407408 7.34568,5.555556 0.246913,4.8148152 -9.25926,4.5679016 -9.691359,0.4938272 l 1.728395,-0.308642 c 0.246914,2.2222224 5.987655,2.777778 6.049383,0 -0.617284,-3.4567904 -6.975309,-0.925926 -7.283951,-5.555556 -0.246913,-3.518519 5.061729,-3.888889 7.530865,-2.592593 0.740741,0.432099 1.296296,1.17284 1.481482,2.1604942"
         id="use473"
         style="stroke-width:0.0617284" />
    </g>
    <path
       d="m 96.551751,169.21035 v -24.4303"
       stroke="#3a414a"
       fill="none"
       id="path16"
       style="stroke-width:0.132292" />
    <path
       d="m 96.615251,169.28576 -0.125677,-0.0185 v -0.0582 h 0.125677 z"
       stroke="#3a414a"
       stroke-width="0.00661458"
       fill="#3a414a"
       id="path17" />
    <path
       d="m 96.551751,142.82478 0.613834,1.88647 h -1.226344 z"
       stroke="#3a414a"
       fill="#3a414a"
       id="path18"
       style="stroke-width:0.132292" />
    <path
       d="m 93.796116,149.8865 a 0.79375002,0.79375002 0 0 1 0.79375,-0.79375 H 119.4607 a 0.79375002,0.79375002 0 0 1 0.79375,0.79375 v 11.64167 a 0.79375002,0.79375002 0 0 1 -0.79375,0.79375 H 94.589866 a 0.79375002,0.79375002 0 0 1 -0.79375,-0.79375 z"
       stroke="#000000"
       stroke-opacity="0"
       stroke-width="0.264583"
       fill="#ffffff"
       fill-opacity="0"
       id="path19" />
    <g
       id="use19"
       transform="matrix(0.13229167,0,0,0.13229167,103.5134,152.85021)">
      <path
         fill="#3a414a"
         d="m 7.098766,-11.97531 c 3.271605,0 4.25926,2.407408 4.320988,6.0493836 0,4.0740744 -1.419753,6.17284 -4.320988,6.17284 C 5.1851856,0.1851852 4.0740744,-0.4320988 3.4567904,-1.851852 L 3.3333336,0 H 1.4197532 l 0.061728,-16.111112 H 3.45679 v 6.234568 c 0.617284,-1.419753 1.7283952,-2.098766 3.641976,-2.098766 z M 6.6049388,-1.234568 c 2.469136,0 2.777778,-2.0987656 2.777778,-4.62963 0,-2.469136 -0.308642,-4.62963 -2.777778,-4.567902 -2.5925928,0 -3.1481484,1.9753092 -3.1481484,4.6913588 0,2.6543212 0.617284,4.5061732 3.1481484,4.5061732"
         id="use464"
         style="stroke-width:0.0617284" />
      <path
         fill="#3a414a"
         d="M 23.395063,-11.728396 18.08642,1.9135804 c -0.864197,1.7283952 -2.283951,3.1481484 -5,2.5925928 V 3.0246916 c 2.407407,0.3703704 3.271605,-1.234568 3.950617,-3.08642 l -4.62963,-11.6666676 h 2.098766 l 3.518519,9.6296304 3.333333,-9.6296304 h 2.037038"
         id="use465"
         style="stroke-width:0.0617284" />
      <path
         fill="#3a414a"
         d="m 27.098766,-2.9012348 c -0.123457,1.4814816 1.111111,1.7901236 2.345679,1.3580248 v 1.4814816 c -2.037037,0.617284 -4.320988,0.308642 -4.320988,-2.4074076 v -7.839507 h -1.358025 v -1.419753 h 1.481482 l 0.555555,-2.654321 h 1.296297 v 2.654321 h 2.160494 v 1.419753 h -2.160494 v 7.4074082"
         id="use466"
         style="stroke-width:0.0617284" />
      <path
         fill="#3a414a"
         d="m 35.80247,-11.97531 c 3.888889,0 5.308642,2.5925932 5.185186,6.5432108 h -8.333334 c 0,2.469136 0.864197,4.1358028 3.271605,4.1975312 1.604938,0.061728 2.654321,-0.7407408 3.024691,-1.7901236 l 1.728396,0.4938272 c -0.679013,1.7283952 -2.283951,2.777778 -4.753087,2.777778 -3.580247,0 -5.432099,-2.2839508 -5.370371,-6.17284 0.06173,-3.7654324 1.604938,-6.0493836 5.246914,-6.0493836 z m 3.209877,5.0000008 c 0.37037,-3.7037038 -4.691359,-4.7530868 -5.987655,-1.7283952 -0.185185,0.4320988 -0.37037,1.0493828 -0.37037,1.7283952 h 6.358025"
         id="use467"
         style="stroke-width:0.0617284" />
      <path
         fill="#3a414a"
         d="m 50.308643,-8.8271612 c -0.185185,-2.0987658 -5.308642,-2.3456788 -5.370371,0 0.925926,3.2716052 7.098766,0.7407408 7.34568,5.555556 0.246913,4.8148152 -9.25926,4.5679016 -9.691359,0.4938272 l 1.728395,-0.308642 c 0.246914,2.2222224 5.987655,2.777778 6.049383,0 -0.617284,-3.4567904 -6.975309,-0.925926 -7.283951,-5.555556 -0.246913,-3.518519 5.061729,-3.888889 7.530865,-2.592593 0.740741,0.432099 1.296296,1.17284 1.481482,2.1604942"
         id="use468"
         style="stroke-width:0.0617284" />
    </g>
    <g
       id="use20"
       transform="matrix(0.13229167,0,0,0.13229167,100.01828,156.37798)">
      <path
         fill="#3a414a"
         d="m 5.246914,-11.97531 c 1.9135804,0 2.9629632,0.80247 3.703704,2.0370376 L 8.8888896,-16.111112 H 10.864198 L 10.925927,0 H 9.0740748 c -0.1234568,-0.617284 0,-1.4197532 -0.1851852,-1.9135804 -0.617284,1.4197532 -1.7283952,2.160494 -3.6419756,2.160494 -3.2716052,0 -4.2592596,-2.4074076 -4.320988,-6.0493832 0,-4.0740744 1.4197532,-6.1728404 4.320988,-6.1728404 z m 0.5555556,1.481482 c -2.469136,0 -2.8395064,2.0987656 -2.8395064,4.62963 0,2.469136 0.3703704,4.5679016 2.777778,4.5679016 2.5925928,0 3.1481484,-1.9753088 3.1481484,-4.6913584 0,-2.5925928 -0.5555556,-4.5679012 -3.08642,-4.5061732"
         id="use453"
         style="stroke-width:0.0617284" />
      <path
         fill="#3a414a"
         d="m 18.518519,-11.97531 c 3.888889,0 5.308642,2.5925932 5.185186,6.5432108 h -8.333334 c 0,2.469136 0.864197,4.1358028 3.271605,4.1975312 1.604938,0.061728 2.654321,-0.7407408 3.024691,-1.7901236 l 1.728396,0.4938272 c -0.679013,1.7283952 -2.283951,2.777778 -4.753087,2.777778 -3.580247,0 -5.432099,-2.2839508 -5.370371,-6.17284 0.06173,-3.7654324 1.604938,-6.0493836 5.246914,-6.0493836 z m 3.209877,5.0000008 c 0.37037,-3.7037038 -4.691359,-4.7530868 -5.987655,-1.7283952 -0.185185,0.4320988 -0.37037,1.0493828 -0.37037,1.7283952 h 6.358025"
         id="use454"
         style="stroke-width:0.0617284" />
      <path
         fill="#3a414a"
         d="m 33.024692,-8.8271612 c -0.185185,-2.0987658 -5.308642,-2.3456788 -5.370371,0 0.925926,3.2716052 7.098766,0.7407408 7.34568,5.555556 0.246913,4.8148152 -9.25926,4.5679016 -9.691359,0.4938272 l 1.728395,-0.308642 c 0.246914,2.2222224 5.987655,2.777778 6.049383,0 -0.617284,-3.4567904 -6.975309,-0.925926 -7.283951,-5.555556 -0.246913,-3.518519 5.061729,-3.888889 7.530865,-2.592593 0.740741,0.432099 1.296296,1.17284 1.481482,2.1604942"
         id="use455"
         style="stroke-width:0.0617284" />
      <path
         fill="#3a414a"
         d="m 41.975309,-11.97531 c 3.888889,0 5.308642,2.5925932 5.185186,6.5432108 h -8.333334 c 0,2.469136 0.864197,4.1358028 3.271605,4.1975312 1.604938,0.061728 2.654321,-0.7407408 3.024691,-1.7901236 l 1.728396,0.4938272 c -0.679013,1.7283952 -2.283951,2.777778 -4.753087,2.777778 -3.580247,0 -5.432099,-2.2839508 -5.370371,-6.17284 0.06173,-3.7654324 1.604938,-6.0493836 5.246914,-6.0493836 z m 3.209877,5.0000008 c 0.37037,-3.7037038 -4.691359,-4.7530868 -5.987655,-1.7283952 -0.185185,0.4320988 -0.37037,1.0493828 -0.37037,1.7283952 h 6.358025"
         id="use456"
         style="stroke-width:0.0617284" />
      <path
         fill="#3a414a"
         d="M 55.185186,-10.061729 C 50.37037,-11.049384 51.91358,-4.4444448 51.666667,0 h -1.975309 l -0.06173,-11.728396 h 1.851852 c 0.06173,0.740741 -0.06173,1.7901236 0.123456,2.4074076 0.370371,-1.6666666 1.419754,-3.0246916 3.580248,-2.5308646 v 1.790124"
         id="use457"
         style="stroke-width:0.0617284" />
      <path
         fill="#3a414a"
         d="m 56.975309,-14.25926 v -1.851852 h 1.975308 v 1.851852 z m 0,14.25926 v -11.728396 h 1.975308 V 0 h -1.975308"
         id="use458"
         style="stroke-width:0.0617284" />
      <path
         fill="#3a414a"
         d="m 69.074074,-2.2222224 c -0.925926,1.2962964 -1.91358,2.5308644 -4.197531,2.469136 -2.222222,-0.0617284 -3.580247,-1.2962964 -3.580247,-3.5185188 -0.06173,-3.9506176 3.888889,-3.8888892 7.71605,-3.8888892 0.185185,-2.160494 -0.555556,-3.3333336 -2.530864,-3.3333336 C 65,-10.4321 63.950617,-10.061729 63.888889,-8.5802476 l -2.037037,-0.1851852 c 0.308642,-2.2839512 2.037037,-3.2098772 4.691358,-3.2098772 2.777778,0 4.444445,1.234568 4.444445,3.950618 v 5.0617288 c -0.06173,1.234568 0.432099,1.9753088 1.728395,1.6666668 v 1.234568 c -1.91358,0.5555556 -3.765432,-0.1234568 -3.641976,-2.160494 z m -5.740741,-1.0493828 c 0,1.234568 0.740741,2.0370372 1.975309,2.0370372 2.530864,-0.1851852 3.888889,-1.7901236 3.703704,-4.5679016 -2.654321,0.1234568 -5.679013,-0.308642 -5.679013,2.5308644"
         id="use459"
         style="stroke-width:0.0617284" />
      <path
         fill="#3a414a"
         d="m 74.197531,0 v -16.111112 h 1.975308 V 0 h -1.975308"
         id="use460"
         style="stroke-width:0.0617284" />
      <path
         fill="#3a414a"
         d="m 79.074075,-14.25926 v -1.851852 h 1.975308 v 1.851852 z m 0,14.25926 v -11.728396 h 1.975308 V 0 h -1.975308"
         id="use461"
         style="stroke-width:0.0617284" />
      <path
         fill="#3a414a"
         d="m 83.024692,0 v -1.4814816 l 7.160494,-8.7654324 H 83.45679 v -1.481482 h 8.88889 v 1.481482 l -7.160494,8.7654324 h 7.592593 V 0 h -9.753087"
         id="use462"
         style="stroke-width:0.0617284" />
      <path
         fill="#3a414a"
         d="m 99.753087,-11.97531 c 3.888893,0 5.308643,2.5925932 5.185183,6.5432108 h -8.333331 c 0,2.469136 0.864197,4.1358028 3.271605,4.1975312 1.604936,0.061728 2.654326,-0.7407408 3.024696,-1.7901236 l 1.72839,0.4938272 c -0.67901,1.7283952 -2.28395,2.777778 -4.753086,2.777778 -3.580247,0 -5.432099,-2.2839508 -5.370371,-6.17284 0.06173,-3.7654324 1.604938,-6.0493836 5.246914,-6.0493836 z m 3.209873,5.0000008 c 0.37037,-3.7037038 -4.691355,-4.7530868 -5.987651,-1.7283952 -0.185185,0.4320988 -0.37037,1.0493828 -0.37037,1.7283952 h 6.358021"
         id="use463"
         style="stroke-width:0.0617284" />
    </g>
    <g
       id="use21"
       transform="matrix(0.13229167,0,0,0.13229167,104.24835,159.90576)">
      <path
         fill="#3a414a"
         d="M 11.97531,0 5.864198,-7.407408 3.8888892,-5.864198 V 0 H 1.851852 v -15.308643 h 2.0370372 v 7.6543214 l 7.3456798,-7.6543214 h 2.469136 L 7.2222228,-8.641976 14.567902,0 H 11.97531"
         id="use447"
         style="stroke-width:0.0617284" />
      <path
         fill="#3a414a"
         d="m 19.012346,-2.3456792 c 0.06173,2.0987656 0,4.012346 -0.864197,5.1851856 H 16.790124 C 17.345679,2.0370372 17.839507,1.234568 17.839507,0 h -0.987655 v -2.3456792 h 2.160494"
         id="use448"
         style="stroke-width:0.0617284" />
    </g>
    <path
       fill="#3a414a"
       d="m 108.96022,159.90576 h -0.27765 l -0.82478,-2.0252 h 0.28582 l 0.67779,1.78022 0.67779,-1.78022 h 0.29398"
       id="use22"
       style="stroke-width:0.00816615" />
    <path
       d="m 78.450282,102.98908 v 23.96069"
       stroke="#3a414a"
       fill="none"
       id="path22"
       style="stroke-width:0.132292" />
    <path
       d="m 78.512459,102.98908 h -0.125677 v -0.0662 h 0.124354 z"
       stroke="#3a414a"
       stroke-width="0.00661458"
       fill="#3a414a"
       id="path23" />
    <path
       d="m 78.450282,128.9024 -0.613833,-1.88648 h 1.226344 z"
       stroke="#3a414a"
       fill="#3a414a"
       id="path24"
       style="stroke-width:0.132292" />
    <path
       d="m 56.754448,110.199 a 0.79375002,0.79375002 0 0 1 0.79375,-0.79375 h 24.870834 a 0.79375002,0.79375002 0 0 1 0.79375,0.79375 v 11.64167 a 0.79375002,0.79375002 0 0 1 -0.79375,0.79375 H 57.548198 a 0.79375002,0.79375002 0 0 1 -0.79375,-0.79375 z"
       stroke="#000000"
       stroke-opacity="0"
       stroke-width="0.264583"
       fill="#ffffff"
       fill-opacity="0"
       id="path25" />
    <g
       id="use25"
       transform="matrix(0.13229167,0,0,0.13229167,66.884119,115.02306)">
      <path
         fill="#3a414a"
         d="m 6.2345684,-14.444446 c -1.9135804,-0.555555 -2.5925928,0.617284 -2.3456792,2.71605 h 2.3456792 v 1.419753 H 3.8888892 V 0 H 1.9753088 V -10.308643 H 0.308642 v -1.419753 h 1.6666668 c -0.4320988,-3.209877 1.0493828,-5.061729 4.2592596,-4.197531 v 1.481481"
         id="use442"
         style="stroke-width:0.0617284" />
      <path
         fill="#3a414a"
         d="M 7.6543211,0 V -16.111112 H 9.6296299 V 0 H 7.6543211"
         id="use443"
         style="stroke-width:0.0617284" />
      <path
         fill="#3a414a"
         d="M 16.234569,0.2469136 C 10.740741,0.4938272 12.901235,-6.9135808 12.469136,-11.728396 h 1.975309 v 7.407408 c 0,1.9135804 0.432099,3.08642 2.407408,3.0246916 4.444444,-0.1234568 2.777778,-6.2345684 3.08642,-10.4320996 h 1.91358 L 21.913581,0 h -1.851852 c -0.06173,-0.617284 0.06173,-1.54321 -0.123456,-2.0370372 -0.679013,1.3580248 -1.728396,2.2222224 -3.703704,2.2839508"
         id="use444"
         style="stroke-width:0.0617284" />
      <path
         fill="#3a414a"
         d="m 31.728396,-8.8271612 c -0.185185,-2.0987658 -5.308642,-2.3456788 -5.370371,0 0.925926,3.2716052 7.098766,0.7407408 7.34568,5.555556 0.246913,4.8148152 -9.25926,4.5679016 -9.691359,0.4938272 l 1.728395,-0.308642 c 0.246914,2.2222224 5.987655,2.777778 6.049383,0 -0.617284,-3.4567904 -6.975309,-0.925926 -7.283951,-5.555556 -0.246913,-3.518519 5.061729,-3.888889 7.530865,-2.592593 0.740741,0.432099 1.296296,1.17284 1.481482,2.1604942"
         id="use445"
         style="stroke-width:0.0617284" />
      <path
         fill="#3a414a"
         d="m 41.049383,-10.4321 c -4.444444,0 -2.716049,6.2962972 -3.024691,10.4321 h -1.975309 v -16.111112 h 1.975309 l -0.06173,6.3580248 C 38.703703,-11.049384 39.691358,-11.97531 41.728395,-11.97531 47.222222,-11.97531 45,-4.8148152 45.432099,0 H 43.456791 V -7.4691364 C 43.580248,-9.4444452 42.962964,-10.493828 41.049383,-10.4321"
         id="use446"
         style="stroke-width:0.0617284" />
    </g>
    <g
       id="use26"
       transform="matrix(0.13229167,0,0,0.13229167,67.206682,118.55083)">
      <path
         fill="#3a414a"
         d="M 11.97531,0 5.864198,-7.407408 3.8888892,-5.864198 V 0 H 1.851852 v -15.308643 h 2.0370372 v 7.6543214 l 7.3456798,-7.6543214 h 2.469136 L 7.2222228,-8.641976 14.567902,0 H 11.97531"
         id="use449"
         style="stroke-width:0.0617284" />
      <path
         fill="#3a414a"
         d="m 19.012346,-2.3456792 c 0.06173,2.0987656 0,4.012346 -0.864197,5.1851856 H 16.790124 C 17.345679,2.0370372 17.839507,1.234568 17.839507,0 h -0.987655 v -2.3456792 h 2.160494"
         id="use450"
         style="stroke-width:0.0617284" />
    </g>
    <path
       fill="#3a414a"
       d="m 71.918553,118.55083 h -0.277648 l -0.824782,-2.0252 h 0.285815 l 0.677791,1.78022 0.677791,-1.78022 h 0.293981"
       id="use27"
       style="stroke-width:0.00816615" />
    <path
       d="M 96.793845,129.05057 V 105.08989"
       stroke="#3a414a"
       fill="none"
       id="path27"
       style="stroke-width:0.132292" />
    <path
       d="m 96.856022,129.11671 h -0.124354 v -0.0661 h 0.125677 z"
       stroke="#3a414a"
       stroke-width="0.00661458"
       fill="#3a414a"
       id="path28" />
    <path
       d="m 96.793845,103.13725 0.613834,1.88649 h -1.226344 z"
       stroke="#3a414a"
       fill="#3a414a"
       id="path29"
       style="stroke-width:0.132292" />
    <path
       d="m 91.150283,110.199 a 0.79375002,0.79375002 0 0 1 0.79375,-0.79375 h 24.870837 a 0.79375002,0.79375002 0 0 1 0.79375,0.79375 v 11.64167 a 0.79375002,0.79375002 0 0 1 -0.79375,0.79375 H 91.944033 a 0.79375002,0.79375002 0 0 1 -0.79375,-0.79375 z"
       stroke="#000000"
       stroke-opacity="0"
       stroke-width="0.264583"
       fill="#ffffff"
       fill-opacity="0"
       id="path30" />
    <g
       id="use30"
       transform="matrix(0.13229167,0,0,0.13229167,100.70832,115.02306)">
      <path
         fill="#3a414a"
         d="M 7.0370376,-10.061729 C 2.2222224,-11.049384 3.7654324,-4.4444448 3.5185188,0 H 1.54321 L 1.481482,-11.728396 h 1.851852 c 0.061728,0.740741 -0.061728,1.7901236 0.1234568,2.4074076 C 3.8271612,-10.987655 4.876544,-12.34568 7.037038,-11.851853 v 1.790124"
         id="use437"
         style="stroke-width:0.0617284" />
      <path
         fill="#3a414a"
         d="m 13.518519,-11.97531 c 3.888889,0 5.308642,2.5925932 5.185186,6.5432108 h -8.333334 c 0,2.469136 0.864197,4.1358028 3.271605,4.1975312 1.604938,0.061728 2.654321,-0.7407408 3.024691,-1.7901236 l 1.728396,0.4938272 c -0.679013,1.7283952 -2.283951,2.777778 -4.753087,2.777778 -3.580247,0 -5.4320994,-2.2839508 -5.370371,-6.17284 0.061728,-3.7654324 1.6049384,-6.0493836 5.246914,-6.0493836 z m 3.209877,5.0000008 c 0.37037,-3.7037038 -4.691359,-4.7530868 -5.987655,-1.7283952 -0.185185,0.4320988 -0.37037,1.0493828 -0.37037,1.7283952 h 6.358025"
         id="use438"
         style="stroke-width:0.0617284" />
      <path
         fill="#3a414a"
         d="m 28.395062,-2.2222224 c -0.925926,1.2962964 -1.91358,2.5308644 -4.197531,2.469136 -2.222222,-0.0617284 -3.580247,-1.2962964 -3.580247,-3.5185188 -0.06173,-3.9506176 3.888889,-3.8888892 7.71605,-3.8888892 0.185185,-2.160494 -0.555556,-3.3333336 -2.530864,-3.3333336 -1.481482,0.06173 -2.530865,0.432099 -2.592593,1.9135804 L 21.17284,-8.7654328 c 0.308642,-2.2839512 2.037037,-3.2098772 4.691358,-3.2098772 2.777778,0 4.444445,1.234568 4.444445,3.950618 v 5.0617288 c -0.06173,1.234568 0.432099,1.9753088 1.728395,1.6666668 v 1.234568 c -1.91358,0.5555556 -3.765432,-0.1234568 -3.641976,-2.160494 z m -5.740741,-1.0493828 c 0,1.234568 0.740741,2.0370372 1.975309,2.0370372 2.530864,-0.1851852 3.888889,-1.7901236 3.703704,-4.5679016 -2.654321,0.1234568 -5.679013,-0.308642 -5.679013,2.5308644"
         id="use439"
         style="stroke-width:0.0617284" />
      <path
         fill="#3a414a"
         d="m 37.283951,-11.97531 c 1.91358,0 2.962963,0.80247 3.703704,2.0370376 l -0.06173,-6.1728396 h 1.975308 L 42.962964,0 h -1.851852 c -0.123457,-0.617284 0,-1.4197532 -0.185185,-1.9135804 -0.617284,1.4197532 -1.728396,2.160494 -3.641976,2.160494 -3.271605,0 -4.25926,-2.4074076 -4.320988,-6.0493832 0,-4.0740744 1.419753,-6.1728404 4.320988,-6.1728404 z m 0.555556,1.481482 c -2.469136,0 -2.839507,2.0987656 -2.839507,4.62963 0,2.469136 0.370371,4.5679016 2.777778,4.5679016 2.592593,0 3.148149,-1.9753088 3.148149,-4.6913584 0,-2.5925928 -0.555556,-4.5679012 -3.08642,-4.5061732"
         id="use440"
         style="stroke-width:0.0617284" />
      <path
         fill="#3a414a"
         d="m 52.71605,-8.8271612 c -0.185185,-2.0987658 -5.308642,-2.3456788 -5.370371,0 0.925926,3.2716052 7.098766,0.7407408 7.34568,5.555556 C 54.938272,1.54321 45.432099,1.2962964 45,-2.777778 l 1.728395,-0.308642 c 0.246914,2.2222224 5.987655,2.777778 6.049383,0 -0.617284,-3.4567904 -6.975309,-0.925926 -7.283951,-5.555556 -0.246913,-3.518519 5.061729,-3.888889 7.530865,-2.592593 0.740741,0.432099 1.296296,1.17284 1.481482,2.1604942"
         id="use441"
         style="stroke-width:0.0617284" />
    </g>
    <g
       id="use31"
       transform="matrix(0.13229167,0,0,0.13229167,101.60252,118.55083)">
      <path
         fill="#3a414a"
         d="M 11.97531,0 5.864198,-7.407408 3.8888892,-5.864198 V 0 H 1.851852 v -15.308643 h 2.0370372 v 7.6543214 l 7.3456798,-7.6543214 h 2.469136 L 7.2222228,-8.641976 14.567902,0 H 11.97531"
         id="use451"
         style="stroke-width:0.0617284" />
      <path
         fill="#3a414a"
         d="m 19.012346,-2.3456792 c 0.06173,2.0987656 0,4.012346 -0.864197,5.1851856 H 16.790124 C 17.345679,2.0370372 17.839507,1.234568 17.839507,0 h -0.987655 v -2.3456792 h 2.160494"
         id="use452"
         style="stroke-width:0.0617284" />
    </g>
    <path
       fill="#3a414a"
       d="m 106.31439,118.55083 h -0.27765 l -0.82478,-2.0252 h 0.28581 l 0.67779,1.78022 0.67779,-1.78022 h 0.29399"
       id="use32"
       style="stroke-width:0.00816615" />
    <path
       d="m 22.358614,130.04275 a 0.79375002,0.79375002 0 0 1 0.79375,-0.79375 h 24.870834 a 0.79375002,0.79375002 0 0 1 0.79375,0.79375 v 11.64167 a 0.79375002,0.79375002 0 0 1 -0.79375,0.79375 H 23.152364 a 0.79375002,0.79375002 0 0 1 -0.79375,-0.79375 z"
       fill="#ffffff"
       id="path32"
       style="stroke-width:0.132292" />
    <path
       d="m 22.947312,129.27811 0.07937,-0.0198 0.125677,-0.009 h 0.257969 m 1.037167,0 h 0.515937 m 1.03849,0 h 0.518583 m 1.037167,0 h 0.515937 m 1.03849,0 h 0.518583 m 1.037167,0 h 0.518583 m 1.035844,0 h 0.518583 m 1.037167,0 h 0.518583 m 1.035844,0 h 0.518584 m 1.037166,0 h 0.518584 m 1.035843,0 h 0.519907 m 1.035843,0 h 0.515938 m 1.03849,0 h 0.519906 m 1.035844,0 H 43.6245 m 1.03849,0 h 0.519906 m 1.035844,0 h 0.515937 m 1.03849,0 h 0.260614 l 0.124355,0.009 0.08202,0.0198 m 0.559594,0.55959 0.01852,0.0794 0.0093,0.12567 v 0.27782 m 0,1.1086 v 0.55563 m 0,1.10728 v 0.55562 m 0,1.10728 v 0.55563 m 0,1.10728 v 0.55298 m 0,1.1086 v 0.55563 m 0,1.10728 v 0.55562 m 0,1.10861 v 0.27781 l -0.01058,0.12436 -0.01984,0.0794 m -0.559593,0.56092 -0.08202,0.0198 -0.123031,0.009 h -0.259292 m -1.034521,0 H 46.22011 m -1.037167,0 h -0.515938 m -1.037166,0 h -0.518584 m -1.037166,0 h -0.515938 m -1.037166,0 h -0.518584 m -1.037167,0 H 38.44925 m -1.037167,0 H 36.8935 m -1.035844,0 h -0.518583 m -1.035844,0 h -0.515937 m -1.037167,0 h -0.531813 m -1.035843,0 h -0.515938 m -1.037167,0 h -0.519906 m -1.035844,0 h -0.515937 m -1.037167,0 h -0.519906 m -1.035844,0 h -0.515937 m -1.037167,0 h -0.259292 l -0.124354,-0.009 -0.07937,-0.0198 m -0.560917,-0.5596 -0.02117,-0.0794 -0.0093,-0.12568 v -0.27781 m 0,-1.10861 v -0.55562 m 0,-1.10728 v -0.55563 m 0,-1.10728 v -0.55562 m 0,-1.10728 v -0.55298 m 0,-1.10861 v -0.55562 m 0,-1.10728 v -0.55563 m 0,-1.1086 v -0.27782 l 0.0093,-0.12435 0.01984,-0.0794"
       stroke="#282c33"
       stroke-width="0.264583"
       fill="none"
       id="path33" />
    <g
       id="use33"
       transform="matrix(0.13229167,0,0,0.13229167,26.788311,134.86681)">
      <path
         fill="#3a414a"
         d="M 11.97531,0 5.864198,-7.407408 3.8888892,-5.864198 V 0 H 1.851852 v -15.308643 h 2.0370372 v 7.6543214 l 7.3456798,-7.6543214 h 2.469136 L 7.2222228,-8.641976 14.567902,0 H 11.97531"
         id="use424"
         style="stroke-width:0.0617284" />
      <path
         fill="#3a414a"
         d="m 20.987655,-11.97531 c 3.888889,0 5.308642,2.5925932 5.185186,6.5432108 h -8.333334 c 0,2.469136 0.864197,4.1358028 3.271605,4.1975312 1.604938,0.061728 2.654321,-0.7407408 3.024691,-1.7901236 l 1.728396,0.4938272 c -0.679013,1.7283952 -2.283951,2.777778 -4.753087,2.777778 -3.580247,0 -5.432099,-2.2839508 -5.370371,-6.17284 0.06173,-3.7654324 1.604938,-6.0493836 5.246914,-6.0493836 z m 3.209877,5.0000008 c 0.37037,-3.7037038 -4.691359,-4.7530868 -5.987655,-1.7283952 -0.185185,0.4320988 -0.37037,1.0493828 -0.37037,1.7283952 h 6.358025"
         id="use425"
         style="stroke-width:0.0617284" />
      <path
         fill="#3a414a"
         d="M 38.209878,-11.728396 32.901235,1.9135804 c -0.864197,1.7283952 -2.283951,3.1481484 -5,2.5925928 V 3.0246916 c 2.407407,0.3703704 3.271605,-1.234568 3.950617,-3.08642 l -4.62963,-11.6666676 h 2.098766 l 3.518519,9.6296304 3.333333,-9.6296304 h 2.037038"
         id="use426"
         style="stroke-width:0.0617284" />
    </g>
    <g
       id="use34"
       transform="matrix(0.13229167,0,0,0.13229167,32.667941,134.86681)">
      <path
         fill="#3a414a"
         d="m 8.333334,-8.8271612 c -0.1851852,-2.0987658 -5.3086424,-2.3456788 -5.3703708,0 0.925926,3.2716052 7.0987658,0.7407408 7.3456798,5.555556 C 10.555556,1.54321 1.0493828,1.2962964 0.617284,-2.777778 L 2.3456792,-3.08642 c 0.2469136,2.2222224 5.9876548,2.777778 6.0493832,0 -0.617284,-3.4567904 -6.9753092,-0.925926 -7.2839512,-5.555556 -0.2469136,-3.518519 5.0617288,-3.888889 7.5308648,-2.592593 0.7407408,0.432099 1.2962964,1.17284 1.481482,2.1604942"
         id="use427"
         style="stroke-width:0.0617284" />
      <path
         fill="#3a414a"
         d="m 17.283951,-11.97531 c 3.888889,0 5.308642,2.5925932 5.185186,6.5432108 h -8.333334 c 0,2.469136 0.864197,4.1358028 3.271605,4.1975312 1.604938,0.061728 2.654321,-0.7407408 3.024691,-1.7901236 l 1.728396,0.4938272 c -0.679013,1.7283952 -2.283951,2.777778 -4.753087,2.777778 -3.580247,0 -5.432099,-2.2839508 -5.370371,-6.17284 0.06173,-3.7654324 1.604938,-6.0493836 5.246914,-6.0493836 z m 3.209877,5.0000008 c 0.37037,-3.7037038 -4.691359,-4.7530868 -5.987655,-1.7283952 -0.185185,0.4320988 -0.37037,1.0493828 -0.37037,1.7283952 h 6.358025"
         id="use428"
         style="stroke-width:0.0617284" />
      <path
         fill="#3a414a"
         d="M 30.493828,-10.061729 C 25.679012,-11.049384 27.222222,-4.4444448 26.975309,0 H 25 l -0.06173,-11.728396 h 1.851852 c 0.06173,0.740741 -0.06173,1.7901236 0.123456,2.4074076 0.370371,-1.6666666 1.419754,-3.0246916 3.580248,-2.5308646 v 1.790124"
         id="use429"
         style="stroke-width:0.0617284" />
      <path
         fill="#3a414a"
         d="m 32.283951,-14.25926 v -1.851852 h 1.975308 v 1.851852 z m 0,14.25926 v -11.728396 h 1.975308 V 0 h -1.975308"
         id="use430"
         style="stroke-width:0.0617284" />
      <path
         fill="#3a414a"
         d="m 44.382716,-2.2222224 c -0.925926,1.2962964 -1.91358,2.5308644 -4.197531,2.469136 -2.222222,-0.0617284 -3.580247,-1.2962964 -3.580247,-3.5185188 -0.06173,-3.9506176 3.888889,-3.8888892 7.71605,-3.8888892 0.185185,-2.160494 -0.555556,-3.3333336 -2.530864,-3.3333336 -1.481482,0.06173 -2.530865,0.432099 -2.592593,1.9135804 l -2.037037,-0.1851852 c 0.308642,-2.2839512 2.037037,-3.2098772 4.691358,-3.2098772 2.777778,0 4.444445,1.234568 4.444445,3.950618 v 5.0617288 c -0.06173,1.234568 0.432099,1.9753088 1.728395,1.6666668 v 1.234568 c -1.91358,0.5555556 -3.765432,-0.1234568 -3.641976,-2.160494 z m -5.740741,-1.0493828 c 0,1.234568 0.740741,2.0370372 1.975309,2.0370372 2.530864,-0.1851852 3.888889,-1.7901236 3.703704,-4.5679016 -2.654321,0.1234568 -5.679013,-0.308642 -5.679013,2.5308644"
         id="use431"
         style="stroke-width:0.0617284" />
      <path
         fill="#3a414a"
         d="m 49.506173,0 v -16.111112 h 1.975308 V 0 h -1.975308"
         id="use432"
         style="stroke-width:0.0617284" />
      <path
         fill="#3a414a"
         d="m 54.382717,-14.25926 v -1.851852 h 1.975308 v 1.851852 z m 0,14.25926 v -11.728396 h 1.975308 V 0 h -1.975308"
         id="use433"
         style="stroke-width:0.0617284" />
      <path
         fill="#3a414a"
         d="m 58.333334,0 v -1.4814816 l 7.160494,-8.7654324 h -6.728396 v -1.481482 h 8.88889 v 1.481482 l -7.160494,8.7654324 h 7.592593 V 0 h -9.753087"
         id="use434"
         style="stroke-width:0.0617284" />
      <path
         fill="#3a414a"
         d="m 75.061729,-11.97531 c 3.888889,0 5.308642,2.5925932 5.185186,6.5432108 h -8.333334 c 0,2.469136 0.864197,4.1358028 3.271605,4.1975312 1.604938,0.061728 2.654321,-0.7407408 3.024691,-1.7901236 l 1.728396,0.4938272 c -0.679013,1.7283952 -2.283951,2.777778 -4.753087,2.777778 -3.580247,0 -5.432099,-2.2839508 -5.370371,-6.17284 0.06173,-3.7654324 1.604938,-6.0493836 5.246914,-6.0493836 z m 3.209877,5.0000008 c 0.37037,-3.7037038 -4.691359,-4.7530868 -5.987655,-1.7283952 -0.185185,0.4320988 -0.37037,1.0493828 -0.37037,1.7283952 h 6.358025"
         id="use435"
         style="stroke-width:0.0617284" />
      <path
         fill="#3a414a"
         d="M 88.271606,-10.061729 C 83.45679,-11.049384 85,-4.4444448 84.753087,0 h -1.975309 l -0.06173,-11.728396 H 84.5679 c 0.06173,0.740741 -0.06173,1.7901236 0.123456,2.4074076 0.370371,-1.6666666 1.419754,-3.0246916 3.580248,-2.5308646 v 1.790124"
         id="use436"
         style="stroke-width:0.0617284" />
    </g>
    <g
       id="use35"
       transform="matrix(0.13229167,0,0,0.13229167,25.677714,138.39458)">
      <path
         fill="#3a414a"
         d="M 8.4567908,0 H 6.3580252 L 0.1234568,-15.308643 h 2.160494 l 5.1234572,13.456791 5.123457,-13.456791 h 2.222223"
         id="use409"
         style="stroke-width:0.0617284" />
      <path
         fill="#3a414a"
         d="m 21.851852,-2.2222224 c -0.925926,1.2962964 -1.91358,2.5308644 -4.197531,2.469136 -2.222222,-0.0617284 -3.580247,-1.2962964 -3.580247,-3.5185188 -0.06173,-3.9506176 3.888889,-3.8888892 7.71605,-3.8888892 0.185185,-2.160494 -0.555556,-3.3333336 -2.530864,-3.3333336 -1.481482,0.06173 -2.530865,0.432099 -2.592593,1.9135804 L 14.62963,-8.7654328 c 0.308642,-2.2839512 2.037037,-3.2098772 4.691358,-3.2098772 2.777778,0 4.444445,1.234568 4.444445,3.950618 v 5.0617288 c -0.06173,1.234568 0.432099,1.9753088 1.728395,1.6666668 v 1.234568 c -1.91358,0.5555556 -3.765432,-0.1234568 -3.641976,-2.160494 z m -5.740741,-1.0493828 c 0,1.234568 0.740741,2.0370372 1.975309,2.0370372 2.530864,-0.1851852 3.888889,-1.7901236 3.703704,-4.5679016 -2.654321,0.1234568 -5.679013,-0.308642 -5.679013,2.5308644"
         id="use410"
         style="stroke-width:0.0617284" />
      <path
         fill="#3a414a"
         d="m 26.975309,0 v -16.111112 h 1.975308 V 0 h -1.975308"
         id="use411"
         style="stroke-width:0.0617284" />
      <path
         fill="#3a414a"
         d="M 35.555556,0.2469136 C 30.061728,0.4938272 32.222222,-6.9135808 31.790123,-11.728396 h 1.975309 v 7.407408 c 0,1.9135804 0.432099,3.08642 2.407408,3.0246916 4.444444,-0.1234568 2.777778,-6.2345684 3.08642,-10.4320996 h 1.91358 L 41.234568,0 h -1.851852 c -0.06173,-0.617284 0.06173,-1.54321 -0.123456,-2.0370372 -0.679013,1.3580248 -1.728396,2.2222224 -3.703704,2.2839508"
         id="use412"
         style="stroke-width:0.0617284" />
      <path
         fill="#3a414a"
         d="m 48.888889,-11.97531 c 3.888889,0 5.308642,2.5925932 5.185186,6.5432108 h -8.333334 c 0,2.469136 0.864197,4.1358028 3.271605,4.1975312 1.604938,0.061728 2.654321,-0.7407408 3.024691,-1.7901236 l 1.728396,0.4938272 c -0.679013,1.7283952 -2.283951,2.777778 -4.753087,2.777778 -3.580247,0 -5.432099,-2.2839508 -5.370371,-6.17284 0.06173,-3.7654324 1.604938,-6.0493836 5.246914,-6.0493836 z m 3.209877,5.0000008 c 0.37037,-3.7037038 -4.691359,-4.7530868 -5.987655,-1.7283952 -0.185185,0.4320988 -0.37037,1.0493828 -0.37037,1.7283952 h 6.358025"
         id="use413"
         style="stroke-width:0.0617284" />
    </g>
    <g
       id="use36"
       transform="matrix(0.13229167,0,0,0.13229167,33.778538,138.39458)">
      <path
         fill="#3a414a"
         d="m 8.333334,-8.8271612 c -0.1851852,-2.0987658 -5.3086424,-2.3456788 -5.3703708,0 0.925926,3.2716052 7.0987658,0.7407408 7.3456798,5.555556 C 10.555556,1.54321 1.0493828,1.2962964 0.617284,-2.777778 L 2.3456792,-3.08642 c 0.2469136,2.2222224 5.9876548,2.777778 6.0493832,0 -0.617284,-3.4567904 -6.9753092,-0.925926 -7.2839512,-5.555556 -0.2469136,-3.518519 5.0617288,-3.888889 7.5308648,-2.592593 0.7407408,0.432099 1.2962964,1.17284 1.481482,2.1604942"
         id="use414"
         style="stroke-width:0.0617284" />
      <path
         fill="#3a414a"
         d="m 17.283951,-11.97531 c 3.888889,0 5.308642,2.5925932 5.185186,6.5432108 h -8.333334 c 0,2.469136 0.864197,4.1358028 3.271605,4.1975312 1.604938,0.061728 2.654321,-0.7407408 3.024691,-1.7901236 l 1.728396,0.4938272 c -0.679013,1.7283952 -2.283951,2.777778 -4.753087,2.777778 -3.580247,0 -5.432099,-2.2839508 -5.370371,-6.17284 0.06173,-3.7654324 1.604938,-6.0493836 5.246914,-6.0493836 z m 3.209877,5.0000008 c 0.37037,-3.7037038 -4.691359,-4.7530868 -5.987655,-1.7283952 -0.185185,0.4320988 -0.37037,1.0493828 -0.37037,1.7283952 h 6.358025"
         id="use415"
         style="stroke-width:0.0617284" />
      <path
         fill="#3a414a"
         d="M 30.493828,-10.061729 C 25.679012,-11.049384 27.222222,-4.4444448 26.975309,0 H 25 l -0.06173,-11.728396 h 1.851852 c 0.06173,0.740741 -0.06173,1.7901236 0.123456,2.4074076 0.370371,-1.6666666 1.419754,-3.0246916 3.580248,-2.5308646 v 1.790124"
         id="use416"
         style="stroke-width:0.0617284" />
      <path
         fill="#3a414a"
         d="m 32.283951,-14.25926 v -1.851852 h 1.975308 v 1.851852 z m 0,14.25926 v -11.728396 h 1.975308 V 0 h -1.975308"
         id="use417"
         style="stroke-width:0.0617284" />
      <path
         fill="#3a414a"
         d="m 44.382716,-2.2222224 c -0.925926,1.2962964 -1.91358,2.5308644 -4.197531,2.469136 -2.222222,-0.0617284 -3.580247,-1.2962964 -3.580247,-3.5185188 -0.06173,-3.9506176 3.888889,-3.8888892 7.71605,-3.8888892 0.185185,-2.160494 -0.555556,-3.3333336 -2.530864,-3.3333336 -1.481482,0.06173 -2.530865,0.432099 -2.592593,1.9135804 l -2.037037,-0.1851852 c 0.308642,-2.2839512 2.037037,-3.2098772 4.691358,-3.2098772 2.777778,0 4.444445,1.234568 4.444445,3.950618 v 5.0617288 c -0.06173,1.234568 0.432099,1.9753088 1.728395,1.6666668 v 1.234568 c -1.91358,0.5555556 -3.765432,-0.1234568 -3.641976,-2.160494 z m -5.740741,-1.0493828 c 0,1.234568 0.740741,2.0370372 1.975309,2.0370372 2.530864,-0.1851852 3.888889,-1.7901236 3.703704,-4.5679016 -2.654321,0.1234568 -5.679013,-0.308642 -5.679013,2.5308644"
         id="use418"
         style="stroke-width:0.0617284" />
      <path
         fill="#3a414a"
         d="m 49.506173,0 v -16.111112 h 1.975308 V 0 h -1.975308"
         id="use419"
         style="stroke-width:0.0617284" />
      <path
         fill="#3a414a"
         d="m 54.382717,-14.25926 v -1.851852 h 1.975308 v 1.851852 z m 0,14.25926 v -11.728396 h 1.975308 V 0 h -1.975308"
         id="use420"
         style="stroke-width:0.0617284" />
      <path
         fill="#3a414a"
         d="m 58.333334,0 v -1.4814816 l 7.160494,-8.7654324 h -6.728396 v -1.481482 h 8.88889 v 1.481482 l -7.160494,8.7654324 h 7.592593 V 0 h -9.753087"
         id="use421"
         style="stroke-width:0.0617284" />
      <path
         fill="#3a414a"
         d="m 75.061729,-11.97531 c 3.888889,0 5.308642,2.5925932 5.185186,6.5432108 h -8.333334 c 0,2.469136 0.864197,4.1358028 3.271605,4.1975312 1.604938,0.061728 2.654321,-0.7407408 3.024691,-1.7901236 l 1.728396,0.4938272 c -0.679013,1.7283952 -2.283951,2.777778 -4.753087,2.777778 -3.580247,0 -5.432099,-2.2839508 -5.370371,-6.17284 0.06173,-3.7654324 1.604938,-6.0493836 5.246914,-6.0493836 z m 3.209877,5.0000008 c 0.37037,-3.7037038 -4.691359,-4.7530868 -5.987655,-1.7283952 -0.185185,0.4320988 -0.37037,1.0493828 -0.37037,1.7283952 h 6.358025"
         id="use422"
         style="stroke-width:0.0617284" />
      <path
         fill="#3a414a"
         d="M 88.271606,-10.061729 C 83.45679,-11.049384 85,-4.4444448 84.753087,0 h -1.975309 l -0.06173,-11.728396 H 84.5679 c 0.06173,0.740741 -0.06173,1.7901236 0.123456,2.4074076 0.370371,-1.6666666 1.419754,-3.0246916 3.580248,-2.5308646 v 1.790124"
         id="use423"
         style="stroke-width:0.0617284" />
    </g>
    <path
       d="M 49.502219,56.550724 H 36.3855 l -0.119063,0.0093 -0.111125,0.02646 -0.105833,0.04498 -0.0979,0.05953 -0.08731,0.07408 -0.07408,0.08599 -0.05953,0.0979 -0.04498,0.105833 -0.02646,0.111125 -0.0079,0.116417 V 126.94713 H 35.525604 V 57.279651 l 0.0093,-0.132292 0.03175,-0.129646 0.05292,-0.124354 0.07012,-0.115094 0.08731,-0.103187 0.100542,-0.08731 0.115094,-0.07011 0.124354,-0.05292 0.129646,-0.03043 0.132291,-0.0093 h 13.123334 z m 25.574626,0 H 59.41748 V 56.42637 h 15.663333 z"
       stroke="#3a414a"
       stroke-width="0.00661458"
       fill="#3a414a"
       id="path36" />
    <path
       d="M 75.14299,56.550724 H 75.0742 V 56.42637 h 0.06879 z"
       fill="#3a414a"
       id="path37"
       style="stroke-width:0.132292" />
    <path
       d="m 35.587781,128.9024 -0.613833,-1.88648 h 1.226344 z"
       fill="#3a414a"
       id="path39"
       style="stroke-width:0.132292" />
    <path
       d="m 35.587781,129.10613 -0.701146,-2.15371 h 1.402292 z m -0.526521,-2.02803 0.525198,1.62057 0.526521,-1.6219 z"
       stroke="#3a414a"
       stroke-width="0.00661458"
       fill="#3a414a"
       id="path40" />
    <g
       id="use40"
       transform="matrix(0.13229167,0,0,0.13229167,49.502464,55.547806)">
      <path
         fill="#333333"
         d="m 1.1851853,-12.246915 c 4.5925929,0.04938 10.1728407,-0.790123 10.0740747,3.9012353 -0.04938,3.703704 -3.4074075,4.3456794 -7.5061733,4.0493831 V 0 H 1.1851853 Z m 2.5679014,5.9753096 c 2.3209879,0 4.938272,0.345679 4.938272,-2.0246916 0,-2.320988 -2.6666669,-1.925926 -4.938272,-1.925926 v 3.9506176"
         id="use401"
         style="stroke-width:0.0493827" />
      <path
         fill="#333333"
         d="m 18.518519,-7.407408 c -1.925926,-0.5925926 -2.962963,0.6419754 -2.962963,2.814815 V 0 H 13.08642 l -0.04938,-9.3827168 h 2.320988 c 0.09877,0.6419754 -0.04938,1.4320989 0.148148,1.9753088 0.296297,-1.3827162 1.333334,-2.617284 3.012346,-2.0246915 v 2.0246915"
         id="use402"
         style="stroke-width:0.0493827" />
      <path
         fill="#333333"
         d="m 24.197531,-9.5802477 c 3.160494,0 4.740741,1.7777779 4.740741,4.8888893 0,3.1604941 -1.728395,4.88888928 -4.790124,4.88888928 -3.012345,0 -4.691358,-1.77777788 -4.691358,-4.88888928 0,-3.0617286 1.679013,-4.8888893 4.740741,-4.8888893 z m -0.04938,8.0987661 c 1.728396,0 2.222223,-1.3827162 2.222223,-3.2098768 0,-1.9753088 -0.493827,-3.2098768 -2.123457,-3.2098768 -1.679013,0 -2.222222,1.2839507 -2.222222,3.2098768 0,1.7777779 0.493827,3.2098768 2.123456,3.2098768"
         id="use403"
         style="stroke-width:0.0493827" />
      <path
         fill="#333333"
         d="m 35.901235,0 h -2.91358 L 29.62963,-9.3827168 h 2.617284 l 2.222222,7.407408 2.370371,-7.407408 h 2.567901"
         id="use404"
         style="stroke-width:0.0493827" />
      <path
         fill="#333333"
         d="m 40.691358,-11.061729 v -1.827161 h 2.469136 v 1.827161 z m 0,11.061729 v -9.3827168 h 2.469136 V 0 h -2.469136"
         id="use405"
         style="stroke-width:0.0493827" />
      <path
         fill="#333333"
         d="m 48.740741,-9.5802477 c 1.530865,-0.049383 2.271605,0.7407408 2.864198,1.6790125 l -0.04938,-4.9876548 h 2.469136 L 54.074075,0 h -2.37037 c -0.09877,-0.4938272 0,-1.1358026 -0.148149,-1.5308643 -0.54321,1.13580254 -1.432098,1.72839518 -3.012346,1.72839518 -2.567901,0 -3.358024,-2.22222238 -3.407407,-4.88888928 0,-2.7654323 0.938271,-4.7901238 3.604938,-4.8888893 z m 0.839507,8.0987661 c 1.629629,0 1.975308,-1.4814816 2.024691,-3.2592595 0.04938,-1.8271607 -0.444444,-3.1604941 -2.024691,-3.1604941 -1.580247,0 -1.876544,1.4814816 -1.925926,3.2098768 0,2.123457 0.641975,3.2098768 1.925926,3.2098768"
         id="use406"
         style="stroke-width:0.0493827" />
      <path
         fill="#333333"
         d="m 64.34568,-2.3703706 c -0.641975,1.48148164 -1.82716,2.6172842 -4.049383,2.56790148 -2.962963,-0.09876544 -4.395062,-1.82716068 -4.395062,-4.93827198 0,-3.1111114 1.481482,-4.8395066 4.444445,-4.8395066 3.061729,0 4.098766,2.2222224 4.148148,5.3333338 h -6.024691 c 0,1.5308643 0.395061,2.7160496 1.925926,2.7654323 0.888889,0 1.481481,-0.345679 1.679012,-1.0864198 z m -2.222222,-3.4074076 c 0.246913,-2.2716052 -2.814815,-3.1111114 -3.456791,-1.0370372 -0.09877,0.2962964 -0.19753,0.6419754 -0.19753,1.0370372 h 3.654321"
         id="use407"
         style="stroke-width:0.0493827" />
      <path
         fill="#333333"
         d="m 71.851853,-6.8148154 c 0.04938,-1.4320988 -3.456791,-1.6790124 -3.506173,-0.1975308 0.74074,2.2716051 5.82716,0.345679 5.876543,4.2469139 0.04938,4.0987657 -8.098766,3.7530867 -8.493828,0.4444445 l 2.123457,-0.3456791 c 0.197531,0.9382717 0.987655,1.234568 2.17284,1.234568 1.62963,0.3950618 2.814815,-1.4814816 1.185185,-2.0246915 -2.123457,-0.6913581 -5.037037,-0.5432099 -5.135803,-3.2592595 -0.09877,-3.9506181 7.604939,-3.6543211 7.950618,-0.3456791"
         id="use408"
         style="stroke-width:0.0493827" />
    </g>
    <path
       d="M 49.015386,135.95222 H 75.076845"
       stroke="#3a414a"
       fill="none"
       id="path41"
       style="stroke-width:0.132292" />
    <path
       d="m 49.016709,136.0144 h -0.06615 v -0.12568 h 0.06615 z m 26.126281,0 H 75.0742 v -0.12568 h 0.06879 z"
       stroke="#3a414a"
       stroke-width="0.00661458"
       fill="#3a414a"
       id="path42" />
    <path
       d="M 61.997167,155.66104 50.348886,144.01143 m 11.648281,11.64828 0.04895,0.0476"
       stroke="#3a414a"
       fill="none"
       id="path43"
       style="stroke-width:0.132292" />
    <path
       d="m 48.966438,142.62898 1.770062,0.89959 -0.867833,0.86915 z"
       stroke="#3a414a"
       fill="#3a414a"
       id="path44"
       style="stroke-width:0.132292" />
    <path
       d="M 99.022956,155.69014 50.912448,143.02983 m 48.109188,12.66031 0.0661,0.0172"
       stroke="#3a414a"
       fill="none"
       id="path45"
       style="stroke-width:0.132292" />
    <path
       d="m 49.023323,142.53109 1.981729,-0.11113 -0.310885,1.18666 z"
       stroke="#3a414a"
       fill="#3a414a"
       id="path46"
       style="stroke-width:0.132292" />
    <path
       d="M 88.504449,64.144266 V 87.262235"
       stroke="#3a414a"
       fill="none"
       id="path47"
       style="stroke-width:0.132292" />
    <path
       d="m 88.504449,63.365068 1.009386,1.706562 h -2.020094 z m 0,25.849792 -0.613833,-1.886479 h 1.226344 z"
       stroke="#3a414a"
       fill="#3a414a"
       id="path48"
       style="stroke-width:0.132292" />
    <path
       d="M 88.504449,24.456765 V 47.574734"
       stroke="#3a414a"
       fill="none"
       id="path49"
       style="stroke-width:0.132292" />
    <path
       d="m 88.504449,23.677567 1.009386,1.706562 h -2.020094 z m 0,25.849792 -0.613833,-1.886479 h 1.226344 z"
       stroke="#3a414a"
       fill="#3a414a"
       id="path50"
       style="stroke-width:0.132292" />
  </g>
</svg>
